<svg id="圖層_1" data-name="圖層 1" xmlns="http://www.w3.org/2000/svg" viewBox="0 0 200 200"><defs><style>.cls-1{fill:#fff;}</style></defs><title>icon_all-1</title><path class="cls-1" d="M101.86,79.92c-.06.62-.09,1.12-.09,1.61,0,12.19,0,38.6,0,38.6h53.54c0,4-4.69,20-19.65,30.07-8.76,5.94-18.62,8.68-29.06,9.35A58.39,58.39,0,0,1,84.93,157a60.18,60.18,0,0,1-41.24-52A56.92,56.92,0,0,1,44.9,86.9c6.63-29.09,34.19-50.67,65.79-46,14,2,22,7.89,29.39,14.15,9.65-9.67,19.24-19.25,29.08-29.12-2.39-1.72-7.9-7.33-17.73-13A95.56,95.56,0,0,0,104,0C100.8,0,97.6.17,94.43.3A79.52,79.52,0,0,0,77.94,2.87,98.74,98.74,0,0,0,24.29,37.08,98.19,98.19,0,0,0,2.18,94.23a94.46,94.46,0,0,0,2.1,26.92q8.46,37.18,39.13,59.77A97.7,97.7,0,0,0,96.8,199.84a105.85,105.85,0,0,0,32.79-3.24c20-5.23,36.67-15.71,49.19-32.35,18.1-24.1,22.5-55,17.14-84.33Z"/></svg>