<?xml version="1.0" encoding="utf-8"?>
<!-- Generator: Adobe Illustrator 24.0.0, SVG Export Plug-In . SVG Version: 6.00 Build 0)  -->
<svg version="1.1" id="圖層_1" xmlns="http://www.w3.org/2000/svg" xmlns:xlink="http://www.w3.org/1999/xlink" x="0px" y="0px"
	 viewBox="0 0 150 150" style="enable-background:new 0 0 150 150;" xml:space="preserve">
<style type="text/css">
	.st0{fill:#00A5AC;}
	.st1{fill:#FCD100;}
	.st2{fill:#FFFFFF;}
	.st3{fill:#00A6AE;}
	.st4{fill-rule:evenodd;clip-rule:evenodd;fill:#56B453;}
	.st5{fill-rule:evenodd;clip-rule:evenodd;fill:#90C54C;}
	.st6{clip-path:url(#SVGID_2_);}
	.st7{fill:#FCD000;}
	.st8{clip-path:url(#SVGID_4_);}
	.st9{fill:#00A4AD;}
	.st10{fill:#FDD100;}
	.st11{fill-rule:evenodd;clip-rule:evenodd;fill:#00A5AC;}
	.st12{fill:#7D7D7D;}
	.st13{fill:#008088;}
	.st14{fill:none;stroke:#FFFFFF;stroke-width:3;stroke-linecap:round;stroke-linejoin:round;stroke-miterlimit:10;}
	.st15{fill:none;stroke:#231815;stroke-miterlimit:10;}
	.st16{fill:#231815;}
	.st17{fill:none;stroke:#231815;stroke-width:2;stroke-miterlimit:10;}
	.st18{fill:none;stroke:#FFFFFF;stroke-miterlimit:10;}
	.st19{fill:none;stroke:#FFFFFF;stroke-width:1.5;stroke-miterlimit:10;}
	.st20{fill:#4D4D4D;}
	.st21{fill:#9E9E9F;}
	.st22{fill:none;stroke:#DBDCDC;stroke-width:2;stroke-miterlimit:10;}
	.st23{fill:none;}
	.st24{fill:#F7F9FA;}
	.st25{fill-rule:evenodd;clip-rule:evenodd;fill:#9E9E9F;}
	.st26{fill-rule:evenodd;clip-rule:evenodd;fill:#00A4AD;}
	.st27{fill:none;stroke:#0F0F0F;stroke-width:1.2;stroke-linecap:round;stroke-linejoin:round;stroke-miterlimit:10;}
	
		.st28{fill:none;stroke:#0F0F0F;stroke-width:1.2;stroke-linecap:round;stroke-linejoin:round;stroke-miterlimit:10;stroke-dasharray:2,2.5;}
	.st29{fill:none;stroke:#0F0F0F;stroke-linecap:round;stroke-linejoin:round;stroke-miterlimit:10;stroke-dasharray:1.8991,3.7982;}
	.st30{fill:none;stroke:#0F0F0F;stroke-linecap:round;stroke-linejoin:round;stroke-miterlimit:10;}
	.st31{fill:#009676;}
	.st32{fill-rule:evenodd;clip-rule:evenodd;fill:#FCD000;}
	.st33{fill:#3E3A39;}
	.st34{fill:#3CB9C0;}
	.st35{fill:none;stroke:#9E9E9F;stroke-miterlimit:10;}
	.st36{fill:none;stroke:#00A4AD;stroke-linecap:round;stroke-miterlimit:10;}
	.st37{fill:none;stroke:#9E9E9F;stroke-width:3.4;stroke-miterlimit:10;}
	.st38{fill:none;stroke:#00A4AD;stroke-width:3.4;stroke-linecap:round;stroke-miterlimit:10;}
	.st39{fill:none;stroke:#231815;stroke-width:5;stroke-linecap:round;stroke-miterlimit:10;}
	.st40{fill:none;stroke:#231815;stroke-width:10;stroke-linecap:round;stroke-linejoin:round;stroke-miterlimit:10;}
	.st41{fill:#9FA0A0;}
</style>
<path class="st2" d="M75,3.25c-41.42,0-75,27.68-75,61.83c0,31.85,29.21,58.07,66.75,61.45c5.53,1.58,2.42,11.93,1.57,15.3
	c-0.88,3.51,0.7,4.57,0.7,4.57c3.69,1.58,9.84-2.46,9.84-2.46c18.3-9.22,41.49-28.58,48.69-34.76C141.41,97.96,150,82.35,150,65.08
	C150,30.93,116.42,3.25,75,3.25z M50.15,81.59c0,0.78-0.63,1.41-1.41,1.41H33.9h-2.28h-2.63c-0.78,0-1.41-0.63-1.41-1.41V50.5
	c0-0.78,0.63-1.41,1.41-1.41h4.92c0.78,0,1.41,0.63,1.41,1.41v24.77h13.44c0.78,0,1.41,0.63,1.41,1.41V81.59z M62,81.59
	C62,82.37,61.38,83,60.6,83h-4.92c-0.78,0-1.41-0.63-1.41-1.41V50.5c0-0.78,0.63-1.41,1.41-1.41h4.92c0.78,0,1.41,0.63,1.41,1.41
	V81.59z M96.43,81.59c0,0.78-0.63,1.41-1.41,1.41h-4.92c-0.05,0-0.09-0.01-0.14-0.01c-0.5,0.04-1.04-0.19-1.38-0.66l-13.94-19.2
	v18.46c0,0.78-0.63,1.41-1.41,1.41h-4.92c-0.78,0-1.41-0.63-1.41-1.41V50.5c0-0.78,0.63-1.41,1.41-1.41h4.92
	c0.55,0,1.03,0.32,1.26,0.79c0.11,0.09,0.22,0.19,0.31,0.32L88.7,69.33V50.5c0-0.78,0.63-1.41,1.41-1.41h4.92
	c0.78,0,1.41,0.63,1.41,1.41V81.59z M123.74,55.42c0,0.78-0.63,1.41-1.41,1.41h-13.61v5.27h13.61c0.78,0,1.41,0.63,1.41,1.41v4.92
	c0,0.78-0.63,1.41-1.41,1.41h-13.61v5.44h13.61c0.78,0,1.41,0.63,1.41,1.41v4.92c0,0.78-0.63,1.41-1.41,1.41h-15.02h-2.11h-2.81
	c-0.78,0-1.41-0.63-1.41-1.41V50.5c0-0.78,0.63-1.41,1.41-1.41h2.81h2.11h15.02c0.78,0,1.41,0.63,1.41,1.41V55.42z"/>
</svg>
