<?xml version="1.0" encoding="utf-8"?>
<!-- Generator: Adobe Illustrator 26.0.0, SVG Export Plug-In . SVG Version: 6.00 Build 0)  -->
<svg version="1.1" id="圖層_1" xmlns="http://www.w3.org/2000/svg" xmlns:xlink="http://www.w3.org/1999/xlink" x="0px" y="0px"
	 viewBox="0 0 226.8 60.5" style="enable-background:new 0 0 226.8 60.5;" xml:space="preserve" width="230px">
<style type="text/css">
	.st0{fill:#231815;}
	.st1{fill:#139BA3;}
	.st2{fill:#F2C91E;}
	.st3{fill:#FCD000;}
	.st4{fill:#109CA4;}
	.st5{fill:#FFFFFF;}
	.st6{fill:#3CB9C0;}
</style>
<g>
	<path class="st0" d="M217.6,13.9h-46c-3.8,0-7-3.1-7-7l0,0c0-3.8,3.1-7,7-7h46c3.8,0,7,3.1,7,7l0,0
		C224.6,10.8,221.4,13.9,217.6,13.9z"/>
	<g>
		<g>
			<g>
				<path class="st1" d="M53.8,23.8c-1.6-3.3-5.5-5.4-9.1-5.3c-4.6,0.1-9.3,0.2-13.9,0.3c-0.1-3.9-0.2-7.8-0.2-11.7
					c0-1.7-1.5-3.1-3.2-3c-1.7,0-3.1,1.5-3,3.2c0.1,3.9,0.2,7.8,0.2,11.7c-3.7,0.1-7.3,0.1-11,0.2c-3.1,0.1-6.2-0.1-8.9,1.7
					C1.7,22.7,0,26,0,29.5c0,1,0,2.1,0.1,3.1c0.1,2.9,0.1,5.9,0.2,8.8c0,1.7,1.5,3.1,3.2,3c1.7,0,3.1-1.5,3-3.2
					c-0.1-3.4-0.1-6.8-0.2-10.3c0-0.5,0-1.1,0-1.6c0,0,0,0,0-0.1c0-0.2,0-0.3,0-0.5c0.1-0.3,0.1-0.7,0.3-1c0.1-0.2,0.2-0.4,0.3-0.6
					c0-0.1,0.1-0.1,0.1-0.2C6.9,27,7,26.9,7,26.9c0.2-0.2,0.3-0.3,0.5-0.5C7.5,26.4,8,26,8.2,25.9c0,0,0.1,0,0.1-0.1
					c0.1,0,0.4-0.2,0.5-0.2c0.2-0.1,0.7-0.2,0.8-0.2c0.1,0,0.2,0,0.4,0c0.1,0,0.1,0,0.2,0c4.8-0.1,9.7-0.2,14.5-0.3c0,0.5,0,1,0,1.6
					c0.1,4.1,0.2,8.3,0.2,12.4c0,1.7,1.5,3.1,3.2,3c1.7,0,3.1-1.5,3-3.2c-0.1-4.7-0.2-9.3-0.3-14c3.7-0.1,7.5-0.1,11.2-0.2
					c0.8,0,1.7,0,2.5,0c0,0,0.1,0,0.2,0c0.2,0,0.4,0,0.5,0c0.2,0,0.5,0.1,0.7,0.2c0.1,0,0.1,0,0.2,0.1c0.1,0,0.2,0.1,0.2,0.1
					c0.2,0.1,0.4,0.2,0.6,0.4c-0.1-0.1,0.5,0.4,0.6,0.5c0,0,0.1,0.1,0.1,0.1c0.1,0.1,0.2,0.3,0.3,0.4c0.1,0.2,0.2,0.4,0.4,0.6
					c0,0.1,0.1,0.2,0.1,0.3c0.1,0.2,0.1,0.5,0.2,0.7c0,0.1,0,0.2,0,0.3c0,0.3,0,0.5,0,0.8c0,1.4,0.1,2.7,0.1,4.1
					c0,2.4,0.1,4.8,0.1,7.3c0,1.7,1.5,3.1,3.2,3c1.7,0,3.1-1.5,3-3.2c-0.1-3.4-0.1-6.8-0.2-10.3c0-0.5,0-1.1,0-1.6
					C55,26.8,54.5,25.3,53.8,23.8z"/>
				<path class="st2" d="M46.9,41.4c-0.8-1.4-2.9-2-4.3-1c-0.8,0.6-1.7,1.1-2.6,1.6c-0.4,0.2-0.9,0.5-1.3,0.7
					c-0.1,0-0.3,0.1-0.4,0.2c-0.2,0.1-0.4,0.2-0.6,0.3c-1.7,0.7-3.5,1.2-5.4,1.5c-0.1,0-0.2,0-0.3,0.1c-0.1,0-0.2,0-0.4,0
					c-0.4,0.1-0.8,0.1-1.2,0.1c-0.9,0.1-1.8,0.1-2.6,0.1c-0.8,0-1.6,0-2.3-0.1c-0.1,0-0.7-0.1-0.8-0.1c-0.3,0-0.6-0.1-0.9-0.1
					c-2.6-0.4-5.1-1.1-7.5-2c0,0,0,0-0.1,0c-0.2-0.1-0.4-0.2-0.6-0.3c-0.4-0.2-0.8-0.3-1.1-0.5c-0.5-0.2-0.9-0.5-1.4-0.7
					c-0.1,0-0.2-0.1-0.2-0.1c-1.4-0.9-3.4-0.2-4.2,1.2c-0.8,1.5-0.3,3.3,1.2,4.2c2.9,1.7,6.3,2.9,9.6,3.7c1.9,0.5,3.9,0.8,5.9,1
					c0,2.2,0.1,4.3,0.1,6.5c0,1.7,1.5,3.1,3.2,3c1.7,0,3.1-1.5,3-3.2c0-2.1-0.1-4.3-0.1-6.4c3.1-0.3,6.1-1.1,9-2.3
					c1.9-0.8,3.8-1.8,5.5-3C47.3,44.7,47.8,42.9,46.9,41.4z M16.3,42.6C16.6,42.7,16.4,42.7,16.3,42.6L16.3,42.6z"/>
			</g>
		</g>
	</g>
	<path class="st3" d="M63.7,26.9c-2.2-7.1,1.9-13.2,7.6-14.9c6.7-2.1,11.4,1.5,13.3,7.5c0.4,1.2,0.6,2.5,0.6,3l-13.7,4.2
		c1.6,2.8,4.2,3.3,7.1,2.4c1.7-0.5,3.1-1.5,4.5-2.9l3.7,3.4c-1.9,2.4-4.9,4.2-7.6,5.1C72.4,36.7,66,34.1,63.7,26.9z M77.9,19.8
		c-0.7-2.2-2.2-3.5-4.9-2.7c-2,0.6-3.4,2.4-3.1,5.1L77.9,19.8z"/>
	<path class="st0" d="M95,16.4l-5.9,0l0-4.3l17,0l0,4.3l-5.9,0l0,17.5l-5.2,0L95,16.4z"/>
	<path class="st0" d="M106.3,29.2c0-3.5,2.8-5.4,9.3-6.1c-0.1-1.3-0.8-2.1-2.5-2.1c-1.3,0-2.7,0.5-4.4,1.5l-1.8-3.4
		c2.2-1.3,4.6-2.2,7.2-2.2c4.3,0,6.7,2.4,6.7,7.6l0,9.5l-4.2,0l-0.4-1.7H116c-1.4,1.2-2.9,2.1-4.8,2.1
		C108.2,34.2,106.3,32,106.3,29.2z M115.6,28.9l0-2.7c-3.3,0.4-4.3,1.4-4.3,2.5c0,1,0.7,1.4,1.8,1.4
		C114.1,30.2,114.8,29.7,115.6,28.9z"/>
	<path class="st0" d="M124.8,17.2l5.2,0l0,16.7l-5.2,0L124.8,17.2z"/>
	<path class="st0" d="M133.6,23.1c0-7.3,4.9-11.4,10.4-11.4c2.8,0,5.1,1.3,6.6,2.8l-2.8,3.3c-1.1-1-2.2-1.7-3.8-1.7
		c-2.8,0-5.1,2.5-5.1,6.8c0,4.3,2,6.9,5.1,6.9c1.7,0,3.1-0.9,4.2-2l2.7,3.3c-1.8,2.1-4.3,3.2-7.1,3.2
		C138.3,34.3,133.6,30.5,133.6,23.1z"/>
	<path class="st0" d="M153.7,10.5l5.2,0l0,5.6l-0.2,3c1.2-1.1,2.8-2.3,5.1-2.2c3.6,0,5.2,2.6,5.2,6.8l0,10.3l-5.2,0l0-9.7
		c0-2.3-0.6-3-1.9-3c-1.2,0-1.9,0.5-2.9,1.5l0,11.1l-5.2,0L153.7,10.5z"/>
	<path class="st0" d="M172.8,27.6l0-10.3l5.2,0l0,9.7c0,2.3,0.6,3,1.9,3c1.2,0,1.9-0.5,2.8-1.7l0-10.9l5.2,0l0,16.7l-4.2,0l-0.4-2.3
		h-0.1c-1.4,1.6-2.9,2.7-5.2,2.7C174.3,34.3,172.8,31.7,172.8,27.6z"/>
	<path class="st0" d="M192.1,17.3l4.2,0l0.4,2.1h0.1c1.4-1.3,3.1-2.5,5.3-2.5c3.6,0,5.2,2.6,5.2,6.8l0,10.3l-5.2,0l0-9.7
		c0-2.3-0.6-3-1.9-3c-1.2,0-1.9,0.5-2.9,1.5l0,11.1l-5.2,0L192.1,17.3z"/>
	<path class="st0" d="M210.3,36.8c0-1.4,0.8-2.5,2.4-3.3v-0.1c-0.9-0.6-1.5-1.5-1.5-2.9c0-1.2,0.8-2.3,1.8-3.1v-0.1
		c-1.2-0.8-2.2-2.4-2.2-4.3c0-4.1,3.4-6.1,7-6.1c1,0,1.9,0.1,2.6,0.4l6.1,0l0,3.8l-2.6,0c0.3,0.5,0.5,1.2,0.5,2c0,3.9-3,5.6-6.7,5.6
		c-0.6,0-1.2-0.1-2-0.3c-0.4,0.4-0.5,0.6-0.5,1.2c0,0.8,0.7,1.1,2.5,1.1l2.6,0c4.1,0,6.4,1.3,6.4,4.3c0,3.5-3.6,6-9.4,6
		C213.5,41,210.3,39.8,210.3,36.8z M221.8,35.9c0-1-0.9-1.2-2.4-1.2l-1.6,0c-1.2,0-1.8-0.1-2.4-0.2c-0.5,0.5-0.8,0.9-0.8,1.5
		c0,1.2,1.4,1.8,3.5,1.8C220.3,37.7,221.8,36.9,221.8,35.9z M219.9,23c0-1.7-0.9-2.6-2.1-2.6c-1.2,0-2.1,0.9-2.1,2.6
		c0,1.7,0.9,2.6,2.1,2.6C219,25.6,219.9,24.7,219.9,23z"/>
	<g>
		<path class="st4" d="M132,6.9c-0.4,0.1-0.9,0.1-1.3,0c-0.8-0.2-1.4-0.6-2-1.1c-0.6-0.5-1.4-0.8-1.9-1.5c-0.4-0.5-0.7-1-1-1.5
			c-0.6-0.9-1.1,0.1-1.4,0.7c-0.4,0.8-0.7,1.6-1.3,2.3c-0.5,0.6-1.1,1.2-1.5,1.9c-0.3,0.8-0.2,1.6,0.1,2.4c0.3,0.9,1,1.4,1.8,1.8
			c0.8,0.5,1.4,1,1.9,1.8c0.5,0.7,1,1.5,1.9,1.7c1.2,0.4,2.1-0.7,2.7-1.5c0.5-0.7,1.1-1.9,2.2-1.6c0.4,0.1,0.7,0.3,1.1,0.2
			c0.5-0.1,0.9-0.4,1.3-0.6c1-0.8,2-1.4,3.2-1.9c1.2-0.5,2.4-1.1,3.7-1.1c0.7,0,1.3,0.1,2,0.1c0.8,0,1.6-0.3,2.2-0.8
			c0.8-0.6,2.4-2.4,1.4-3.4c-0.3-0.4-0.9-0.5-1.3-0.8c-0.5-0.3-0.9-0.8-1.4-1.1c-1.6-1.1-3.5,0.9-4.7,1.8c-1.4,1-2.9,2.2-4.6,1.5
			C133.9,5.7,133.1,6.6,132,6.9z"/>
	</g>
	<g>
		<g>
			<path class="st3" d="M124.8,36.2c0.7,0.4,0.9,1.3,0.5,2l0,0c-0.4,0.7-1.3,0.9-2,0.5l-5.4-3c-0.7-0.4-0.9-1.3-0.5-2l0,0
				c0.4-0.7,1.3-0.9,2-0.6L124.8,36.2z"/>
			<path class="st3" d="M130.3,34.5c0,0.8-0.7,1.5-1.5,1.4l0,0c-0.8,0-1.5-0.7-1.5-1.5l0-6.2c0-0.8,0.7-1.5,1.5-1.4l0,0
				c0.8,0,1.5,0.6,1.4,1.5L130.3,34.5z"/>
			<path class="st3" d="M135,38.5c-0.6,0.6-1.5,0.6-2.1,0l0,0c-0.6-0.6-0.6-1.5,0-2.1l4.4-4.3c0.6-0.6,1.5-0.6,2.1,0l0,0
				c0.6,0.6,0.6,1.5,0,2.1L135,38.5z"/>
		</g>
		<g>
			<path class="st5" d="M136.6,59.9h-9.2c0,0-6-6.8-6.6-7.6c-1.5-1.8,1-4,2.6-2.2c0.6,0.7,2,2.2,2.2,2.4c0.5,0.4,1.1,0.2,1.1-0.7
				c0-0.8,0-8.3,0-10.1c0-2.2,3.1-2.3,3.1,0c0,2.1,0,5.2,0,5.5c0.6-1.4,2.4-1.4,2.9,0.2c1-1.2,2.6-0.5,2.6,0.8
				c1.3-0.8,2.5,0.2,2.5,1.8c0,1.6,0,4.8,0,5.6C137.8,57.3,136.6,58,136.6,59.9z"/>
			<path class="st6" d="M136.6,60.5h-9.2c-0.2,0-0.3-0.1-0.5-0.2c-0.2-0.3-6-6.9-6.6-7.6c-0.6-0.8-0.8-1.7-0.4-2.6
				c0.4-0.8,1.2-1.3,2-1.3c0.7,0,1.3,0.3,1.8,0.9c0.6,0.7,2,2.2,2.2,2.4c0,0,0,0,0.1,0c0,0,0.1-0.1,0.1-0.3c0-0.3,0-1.7,0-3.3
				c0-2.5,0-5.7,0-6.8c0-1.5,1.1-2.3,2.2-2.3c1.1,0,2.1,0.8,2.1,2.3v4c0.3-0.1,0.5-0.2,0.8-0.2c0.7,0,1.2,0.3,1.6,0.9
				c0.3-0.2,0.7-0.3,1-0.3c0.8,0,1.5,0.5,1.8,1.2c0.2,0,0.3-0.1,0.5-0.1c1.3,0,2.2,1.1,2.2,2.7v5.6c0,0.9-0.3,1.6-0.6,2.2
				c-0.3,0.6-0.6,1.2-0.6,2C137.2,60.3,136.9,60.5,136.6,60.5z M127.7,59.3h8.4c0.1-0.8,0.4-1.4,0.7-1.9c0.3-0.6,0.5-1.1,0.5-1.7V50
				c0-0.9-0.4-1.5-0.9-1.5c-0.2,0-0.4,0.1-0.6,0.2c-0.2,0.1-0.4,0.1-0.6,0c-0.2-0.1-0.3-0.3-0.3-0.5c0-0.6-0.4-0.9-0.8-0.9
				c-0.3,0-0.5,0.1-0.8,0.4c-0.1,0.2-0.4,0.3-0.6,0.2c-0.2,0-0.4-0.2-0.5-0.4c-0.1-0.5-0.4-0.7-0.8-0.7c-0.4,0-0.7,0.3-0.9,0.7
				c-0.1,0.3-0.4,0.4-0.7,0.4c-0.3-0.1-0.5-0.3-0.5-0.6v-5.5c0-0.8-0.5-1-0.9-1c-0.5,0-1,0.3-1,1.1c0,1.1,0,4.3,0,6.8
				c0,1.6,0,3,0,3.3c0,1.1-0.7,1.6-1.3,1.6c-0.3,0-0.6-0.1-0.9-0.4c-0.2-0.2-1.7-1.8-2.3-2.5c-0.3-0.3-0.6-0.5-0.9-0.5
				c-0.4,0-0.8,0.2-0.9,0.6c-0.1,0.2-0.2,0.7,0.2,1.3C121.8,52.6,126.7,58.1,127.7,59.3z"/>
		</g>
	</g>
	<g>
		<path class="st0" d="M74.3,44.3c0.2,0.1,0.3,0.1,0.3,0.2c0,0.1-0.1,0.2-0.3,0.3c-0.6,1.1-1.4,2.3-2.3,3.6c1.9-0.1,3.8-0.3,5.7-0.5
			c-0.4-0.6-0.9-1.2-1.4-1.7l1-0.8c1.1,1.1,2.2,2.4,3.2,4.1l-1.2,0.8c-0.3-0.5-0.5-0.9-0.8-1.3c-2,0.3-5,0.6-8.9,1
			c-0.1,0.2-0.2,0.3-0.3,0.3c-0.1,0-0.2-0.1-0.2-0.2l-0.3-1.4c0.6,0,1.1-0.1,1.7-0.1c0.5-0.7,0.8-1.3,1.2-1.8c0.6-1,1.1-2,1.5-3
			L74.3,44.3z M78.5,50.7v6h-1.3v-0.8h-5.4v0.8h-1.3v-6H78.5z M77.2,54.8V52h-5.4v2.8H77.2z"/>
		<path class="st0" d="M89.6,46.5v-2.8l1.3,0.1c0.2,0,0.4,0.1,0.4,0.2c0,0.1-0.1,0.2-0.3,0.3v2.2h4.5v6.4H94v-0.9h-3.1v4.6h-1.3
			v-4.6h-3.1v0.9h-1.4v-6.4H89.6z M89.6,50.8v-3.1h-3.1v3.1H89.6z M90.9,50.8H94v-3.1h-3.1V50.8z"/>
		<path class="st0" d="M102.9,49.9V54c0.2,0.6,0.6,0.9,1,1.1c0.5,0.2,1.3,0.3,2.4,0.3c2.5,0,4.7-0.1,6.8-0.2l-0.5,1.5h-6.3
			c-1,0-1.8-0.1-2.4-0.3c-0.6-0.2-1.1-0.5-1.5-1c-0.1-0.2-0.3-0.4-0.4-0.6l-1.3,1.3c-0.1,0.2-0.2,0.3-0.3,0.3
			c-0.1,0-0.2-0.1-0.2-0.2l-0.7-1c0.8-0.5,1.5-0.9,2.1-1.4v-2.7h-1.2v-1.2H102.9z M102.9,47.8l-0.9,0.9c-0.8-0.6-1.6-1.1-2.5-1.5
			l0.9-0.9C101.4,46.8,102.3,47.3,102.9,47.8z M103.5,45.1l-0.9,0.9c-0.7-0.5-1.4-1-2.3-1.4l0.9-0.9
			C102.2,44.2,102.9,44.6,103.5,45.1z M110.8,43.7l0.7,0.4c0.1,0.1,0.1,0.1,0.1,0.2c0,0.1-0.1,0.2-0.3,0.3l-2.2,1.7
			c0.4,0.2,0.8,0.4,1.2,0.6l-0.3,0.3h2.1v6.3c0,0.6-0.2,1-0.7,1.2c-0.4,0.1-0.8,0.2-1.1,0.2l-0.5-1.2l0.8,0c0.2,0,0.3-0.2,0.3-0.5
			v-0.5h-2.2v2h-1.1v-2h-2.1v2.1h-1.2v-7.6h4.3c-0.8-0.4-1.6-0.7-2.3-1l0.8-0.7c0.4,0.1,0.8,0.3,1.2,0.4l1.2-1.1h-4.6v-1h5.5
			l0.3-0.1C110.6,43.6,110.7,43.6,110.8,43.7z M107.5,49.4v-1.1h-2.1v1.1H107.5z M107.5,51.6v-1.2h-2.1v1.2H107.5z M108.7,49.4h2.2
			v-1.1h-2.2V49.4z M108.7,51.6h2.2v-1.2h-2.2V51.6z"/>
		<path class="st0" d="M148,44h4.4v11.5c0,0.5-0.3,0.9-1,1.1c-0.5,0.1-1.1,0.2-1.6,0.2l-0.5-1.2l1.3,0c0.4,0,0.6-0.2,0.6-0.4v-3.1
			h-2.1c0,0.5-0.1,1-0.2,1.4c-0.2,1.2-0.4,2.3-0.8,3.2l-1.2-0.6c0.4-0.9,0.7-1.8,0.8-2.8c0.2-1.2,0.3-2.4,0.3-3.6v-4.5V44z
			 M151.2,51v-2.4h-2v1c0,0.5,0,0.9,0,1.4H151.2z M151.2,47.6v-2.4h-2v2.4H151.2z M159.3,44.1c0,1.7-0.1,2.8-0.2,3.2
			c-0.1,0.4-0.3,0.8-0.6,0.9c-0.3,0.2-0.9,0.3-1.6,0.3l-0.6-1.2c0.7,0,1.2,0,1.3-0.1c0.1-0.1,0.2-0.2,0.3-0.5
			c0.1-0.2,0.1-0.7,0.2-1.5h-3.4v4.1h4.2c0.1-0.1,0.2-0.1,0.3-0.1l0.2,0.1l0.5,0.6c0.1,0.1,0.1,0.2,0.1,0.3c0,0.1-0.1,0.2-0.4,0.3
			c-0.4,1.4-0.8,2.4-1.1,3.1c-0.1,0.2-0.2,0.4-0.3,0.6c0.5,0.6,1.2,1.2,2,1.8l-1.2,0.9c-0.6-0.6-1.1-1.1-1.6-1.6
			c-0.4,0.5-1,1.1-1.7,1.6l-0.9-1c0.8-0.6,1.4-1.2,1.9-1.7c-0.3-0.5-0.6-1-0.8-1.4c-0.3-0.6-0.5-1.3-0.7-2.4h-0.5v5.9h-1.2V44.1h0.6
			H159.3z M157.4,53c0.1-0.3,0.3-0.5,0.4-0.8c0.2-0.5,0.4-1.1,0.7-1.9h-2.2C156.6,51.4,156.9,52.3,157.4,53z"/>
		<path class="st0" d="M168.3,44.3l0.7,0.4c0.1,0.1,0.1,0.1,0.1,0.2c0,0.1-0.1,0.2-0.3,0.3l-2,2.2c0.3,0.2,0.7,0.3,1,0.5l-0.7,0.6
			h0.9l0.3-0.1c0.1,0,0.2,0,0.3,0.1l0.7,0.4c0.1,0.1,0.1,0.1,0.1,0.2c0,0.1-0.1,0.2-0.3,0.3l-0.1,0.3c1-0.2,1.8-0.4,2.4-0.7
			c0,0,0,0,0.1,0c-0.1-0.1-0.2-0.1-0.2-0.2c-0.4-0.4-0.7-0.9-1-1.5c0-0.1-0.1-0.1-0.1-0.2c-0.3,0.4-0.6,0.9-0.9,1.3l-1.2-0.7
			c1-1.1,1.8-2.4,2.4-4l1.1,0.4c0.1,0.1,0.2,0.1,0.2,0.2c0,0.1,0,0.1-0.1,0.2c-0.1,0-0.2,0.3-0.4,0.7h4.4v1.1h-1
			c-0.1,0.8-0.2,1.5-0.5,1.9c-0.1,0.3-0.3,0.6-0.6,0.9c0.1,0.1,0.2,0.1,0.3,0.1c0.5,0.2,1.2,0.4,2.1,0.5L175,51
			c-0.8-0.2-1.5-0.5-2.1-0.8c-0.1-0.1-0.2-0.1-0.3-0.2c-0.7,0.4-1.6,0.7-2.8,1l-0.8-0.8l-0.6,1.8l-1.1-0.4l0.6-1.8h-1v5.5
			c0,0.5-0.2,0.8-0.5,1.1c-0.3,0.2-0.9,0.4-2,0.4l-0.5-1.2h1.1c0.4,0,0.6-0.1,0.6-0.4v-3.8c-0.2,0.5-0.4,0.9-0.5,1.3
			c-0.4,0.7-0.8,1.4-1.4,2.1l-1.1-1c0.6-0.6,1.2-1.3,1.6-2c0.3-0.4,0.6-1.1,1-2h-2.3v-1.1h3.5c-0.9-0.5-1.8-0.9-2.7-1.2l0.8-0.8
			c0.4,0.1,0.8,0.3,1.2,0.4l1.2-1.5h-3.7v-1.1h4.3l0.3-0.1C168.1,44.2,168.2,44.3,168.3,44.3z M171.4,51.6c0-0.3,0.1-0.7,0.1-1
			l1.3,0.1c0.2,0,0.3,0.1,0.3,0.1c0,0.1-0.1,0.2-0.3,0.3c0,0.1,0,0.3-0.1,0.4h2.8c0,1.9-0.1,3.2-0.2,3.7c-0.1,0.5-0.3,0.8-0.7,1
			c-0.3,0.2-0.9,0.3-1.8,0.3l-0.6-1.3c0.8,0,1.3,0,1.5-0.1c0.1-0.1,0.3-0.3,0.3-0.5c0.1-0.2,0.2-0.9,0.2-1.9h-1.8
			c-0.1,0.3-0.1,0.5-0.2,0.7c-0.3,0.9-0.7,1.5-1.3,2.1c-0.4,0.4-1,0.8-1.8,1.1l-0.9-1.1c0.9-0.4,1.6-0.8,2-1.2
			c0.4-0.4,0.7-0.9,0.8-1.4c0,0,0-0.1,0-0.1h-2v-1.1H171.4z M171.5,47.2c0.2,0.4,0.5,0.7,0.9,1.1c0.1,0.1,0.2,0.1,0.2,0.2
			c0.1-0.1,0.2-0.2,0.3-0.3c0.4-0.4,0.6-1,0.7-1.8h-2.4C171.2,46.7,171.3,46.9,171.5,47.2z"/>
		<path class="st0" d="M184.7,47.5c0-0.1,0-0.2,0-0.3v-2.4c0-0.3,0-0.7-0.1-1.1l1.4,0.1c0.2,0,0.4,0.1,0.4,0.2
			c0,0.2-0.1,0.3-0.3,0.4v2.7c0,0.1,0,0.2,0,0.3h5.4v1.2h-5.4c0.5,1.7,1.2,3,2.1,4c0.8,1,2.1,1.9,3.8,2.7l-1.2,1.4
			c-1.5-0.8-2.7-1.8-3.7-3.2c-0.6-0.8-1.1-1.7-1.5-2.8c-0.1,0.4-0.2,0.7-0.4,1c-0.4,1-1.3,2-2.4,3c-0.9,0.7-1.9,1.4-3,2l-1.2-1.1
			c1.2-0.6,2.1-1.1,2.8-1.6c1.1-0.8,1.8-1.6,2.3-2.4c0.4-0.8,0.8-1.8,0.9-2.9h-5.5v-1.2H184.7z"/>
		<path class="st0" d="M201.1,44.3c0.2,0.1,0.3,0.1,0.3,0.2c0,0.1-0.1,0.2-0.3,0.3c-0.6,1.1-1.4,2.3-2.3,3.6
			c1.9-0.1,3.8-0.3,5.7-0.5c-0.4-0.6-0.9-1.2-1.4-1.7l1-0.8c1.1,1.1,2.2,2.4,3.2,4.1l-1.2,0.8c-0.3-0.5-0.5-0.9-0.8-1.3
			c-2,0.3-5,0.6-8.9,1c-0.1,0.2-0.2,0.3-0.3,0.3c-0.1,0-0.2-0.1-0.2-0.2l-0.3-1.4c0.6,0,1.1-0.1,1.7-0.1c0.5-0.7,0.8-1.3,1.2-1.8
			c0.6-1,1.1-2,1.5-3L201.1,44.3z M205.3,50.7v6H204v-0.8h-5.4v0.8h-1.3v-6H205.3z M204,54.8V52h-5.4v2.8H204z"/>
		<path class="st0" d="M216.4,46.5v-2.8l1.3,0.1c0.2,0,0.4,0.1,0.4,0.2c0,0.1-0.1,0.2-0.3,0.3v2.2h4.5v6.4h-1.4v-0.9h-3.1v4.6h-1.3
			v-4.6h-3.1v0.9H212v-6.4H216.4z M216.4,50.8v-3.1h-3.1v3.1H216.4z M217.8,50.8h3.1v-3.1h-3.1V50.8z"/>
	</g>
	<g>
		<path class="st5" d="M171.7,7.6c-0.2,1.1-0.7,2.4-1.4,3.8l-0.8-0.4c0.7-1.5,1.1-2.7,1.4-3.7L171.7,7.6z M170.1,5
			c0.4,0.2,0.9,0.6,1.5,1.1l-0.5,0.7c-0.6-0.5-1.1-0.8-1.4-1L170.1,5z M170.3,2.5c0.4,0.2,0.9,0.6,1.4,1.1l-0.6,0.7
			c-0.6-0.5-1-0.8-1.4-1.1L170.3,2.5z M173.3,10.2c-0.6,0.6-1.2,1.1-1.8,1.4c-0.1-0.3-0.2-0.6-0.4-0.7c0.6-0.3,1.1-0.7,1.5-1.3
			L173.3,10.2z M175.3,9.3h-3.2c-0.1,0-0.1,0-0.1-0.1V2.6c0-0.1,0-0.1,0.1-0.1h3.2c0.1,0,0.1,0,0.1,0.1v6.6
			C175.5,9.3,175.4,9.3,175.3,9.3z M174.6,4.6V3.3l0,0h-1.7c0,0,0,0,0,0v1.2H174.6z M174.6,6.5V5.3h-1.8v1.2H174.6z M172.9,7.3v1.2
			l0,0h1.7l0,0V7.3H172.9z M174.9,9.6c0.5,0.6,0.9,1.1,1.2,1.5l-0.7,0.4c-0.4-0.5-0.7-1-1.2-1.4L174.9,9.6z M177,2.9v6.2h-0.8V2.9
			H177z M178.6,2.2v8.3c0,0.4-0.1,0.6-0.4,0.8c-0.3,0.2-0.8,0.1-1.6-0.1l0-0.8c0.5,0.2,0.8,0.3,0.9,0.3c0.1,0,0.1,0,0.2-0.1
			c0.1-0.1,0.1-0.1,0.1-0.3V2.2H178.6z"/>
		<path class="st5" d="M193,3.8v0.8h-3.2V3.8H193z M192.8,11.2h-2.7c-0.1,0-0.1,0-0.1-0.1V7.7c0-0.1,0-0.1,0.1-0.1h2.7
			c0.1,0,0.1,0,0.1,0.1v3.4C192.9,11.2,192.8,11.2,192.8,11.2z M192.7,5.1v0.8h-2.6V5.1H192.7z M192.7,6.3v0.8h-2.6V6.3H192.7z
			 M192.7,2.5v0.8h-2.5V2.5H192.7z M190.8,8.4C190.8,8.4,190.8,8.4,190.8,8.4l0,2l0,0h1.2l0,0v-2l0,0C192,8.4,190.8,8.4,190.8,8.4z
			 M194.2,6.6h-0.9V5.8h2.7v0.8H195v3.2c0.4-0.2,0.8-0.3,1.1-0.5l0.4,0.8c-0.8,0.4-1.8,0.7-3.1,1.1l-0.3-0.8l1.1-0.3V6.6z
			 M193.5,4.5V3.7h2.5l0-1.5l0.9,0.1l0,1.4h2.1v0.8h-2v0.1c0.1,2.2,0.5,4,1.1,5.4c0.1,0.2,0.2,0.3,0.2,0.3c0,0,0,0,0-0.1
			c0-0.1,0-0.6,0-1.3l0.8,0.2c-0.1,1.3-0.2,2.1-0.4,2.2c-0.1,0.1-0.2,0.1-0.4,0.1c-0.2,0-0.3-0.1-0.5-0.3l-0.2-0.3
			c-0.9-1.3-1.4-3.5-1.6-6.5L193.5,4.5L193.5,4.5z M197.8,2.2c0.3,0.2,0.6,0.5,0.9,0.9l-0.6,0.5c-0.3-0.4-0.6-0.7-0.9-0.9L197.8,2.2
			z"/>
		<path class="st5" d="M211.1,7.5v0.1c0,1.3-0.1,2.5-0.4,3.6l-0.9-0.1c0.4-1.4,0.6-3.1,0.6-4.9V2.3h0.8v2.5h1V2.3h0.9v2.5h0.5v0.8
			h-2.3v0.6l0,0.5h1.5c0.1,0,0.2,0.1,0.2,0.2v4.4H212V7.6c0-0.1,0-0.1-0.1-0.1L211.1,7.5L211.1,7.5z M214.8,5.4v1.3
			c0,1.8-0.3,3.3-1,4.5L213,11c0.4-0.8,0.6-1.5,0.8-2.1c0.1-0.6,0.2-1.4,0.2-2.3V2.7c0-0.2,0.1-0.2,0.2-0.2h4.7v0.8h-4
			c-0.1,0-0.1,0-0.1,0.1v1.2h3.6l0.5,0.3c-0.2,1.7-0.7,3.2-1.5,4.4c0.4,0.5,1.1,1,1.9,1.6l-0.8,0.6c-0.7-0.6-1.2-1.1-1.6-1.5
			c-0.5,0.5-1.1,1-1.9,1.6l-0.7-0.6c0.9-0.5,1.6-1.1,2.1-1.6c-0.7-1-1.1-2.3-1.3-3.8H214.8z M216.8,8.6c0.6-0.9,1-1.9,1.2-2.9
			c0-0.1,0-0.2-0.1-0.2c0,0-0.1-0.1-0.2-0.1h-1.9c0.1,0.7,0.2,1.3,0.4,1.8C216.4,7.7,216.6,8.2,216.8,8.6z"/>
	</g>
</g>
</svg>
