<?xml version="1.0" encoding="utf-8"?>
<!-- Generator: Adobe Illustrator 26.0.0, SVG Export Plug-In . SVG Version: 6.00 Build 0)  -->
<svg version="1.1" id="圖層_1" xmlns="http://www.w3.org/2000/svg" xmlns:xlink="http://www.w3.org/1999/xlink" x="0px" y="0px"
	 viewBox="0 0 221.1 56.6" style="enable-background:new 0 0 221.1 56.6;" xml:space="preserve" width="230px">
<style type="text/css">
	.st0{fill:#139BA3;}
	.st1{fill:#F2C91E;}
	.st2{fill:#FCD000;}
	.st3{fill:#231815;}
	.st4{fill:#109CA4;}
	.st5{fill:#FFFFFF;}
	.st6{fill:#3CB9C0;}
</style>
<g>
	<g>
		<g>
			<g>
				<path class="st0" d="M52.4,20.8c-1.6-3.2-5.3-5.3-8.9-5.2c-4.5,0.1-9,0.2-13.6,0.3c-0.1-3.8-0.1-7.6-0.2-11.4c0-1.6-1.4-3-3.1-3
					s-3,1.4-3,3.1c0.1,3.8,0.1,7.6,0.2,11.4c-3.6,0.1-7.1,0.1-10.7,0.2c-3,0.1-6-0.1-8.7,1.6C1.7,19.7,0,22.9,0,26.3
					c0,1,0,2,0.1,3.1c0.1,2.9,0.1,5.7,0.2,8.6c0,1.6,1.4,3,3.1,3s3-1.4,3-3.1c-0.1-3.3-0.1-6.7-0.2-10c0-0.5,0-1.1,0-1.6
					c0,0,0,0,0-0.1c0-0.2,0-0.3,0-0.5c0-0.3,0.1-0.7,0.2-1c0.1-0.2,0.2-0.4,0.3-0.6c0-0.1,0.1-0.1,0.1-0.2c0-0.1,0.1-0.1,0.1-0.2
					c0.1-0.2,0.3-0.3,0.5-0.5c-0.1,0.1,0.5-0.4,0.7-0.5c0,0,0.1,0,0.1-0.1c0.1,0,0.3-0.2,0.5-0.2c0.2,0,0.7-0.2,0.8-0.2
					c0.1,0,0.2,0,0.4,0c0,0,0.1,0,0.1,0c4.7-0.1,9.4-0.2,14.2-0.3c0,0.5,0,1,0,1.5c0.1,4,0.2,8.1,0.2,12.1c0,1.6,1.4,3,3.1,3
					c1.6,0,3-1.4,3-3.1c-0.1-4.5-0.2-9.1-0.3-13.6c3.6-0.1,7.3-0.1,10.9-0.2c0.8,0,1.7,0,2.5,0c0,0,0.1,0,0.1,0c0.2,0,0.3,0,0.5,0
					c0.2,0,0.4,0.1,0.7,0.1c0.1,0,0.1,0,0.2,0.1c0.1,0,0.2,0.1,0.2,0.1c0.2,0.1,0.4,0.2,0.6,0.3c-0.1-0.1,0.5,0.4,0.6,0.5
					c0,0,0.1,0.1,0.1,0.1c0.1,0.1,0.2,0.3,0.3,0.4c0.1,0.2,0.2,0.4,0.3,0.6c0,0.1,0.1,0.2,0.1,0.3c0.1,0.2,0.1,0.4,0.2,0.7
					c0,0.1,0,0.2,0,0.3c0,0.3,0,0.5,0,0.8c0,1.3,0,2.6,0.1,4c0,2.4,0.1,4.7,0.1,7.1c0,1.6,1.4,3,3.1,3c1.6,0,3-1.4,3-3.1
					c-0.1-3.3-0.1-6.7-0.2-10c0-0.5,0-1.1,0-1.6C53.6,23.7,53.2,22.3,52.4,20.8z"/>
				<path class="st1" d="M45.8,37.9c-0.8-1.3-2.8-1.9-4.1-1c-0.8,0.6-1.7,1.1-2.5,1.6c-0.4,0.2-0.8,0.4-1.3,0.7
					c-0.1,0-0.3,0.1-0.4,0.2c-0.2,0.1-0.4,0.2-0.6,0.2c-1.7,0.7-3.5,1.2-5.3,1.5c-0.1,0-0.2,0-0.3,0c-0.1,0-0.2,0-0.3,0
					c-0.4,0-0.8,0.1-1.2,0.1c-0.9,0.1-1.7,0.1-2.6,0.1c-0.8,0-1.5,0-2.3-0.1c-0.1,0-0.6-0.1-0.8-0.1c-0.3,0-0.6-0.1-0.9-0.1
					c-2.5-0.4-5-1.1-7.3-2c0,0,0,0,0,0c-0.2-0.1-0.4-0.2-0.6-0.2c-0.4-0.2-0.7-0.3-1.1-0.5c-0.4-0.2-0.9-0.4-1.3-0.7
					c-0.1,0-0.2-0.1-0.2-0.1c-1.4-0.8-3.3-0.2-4.1,1.2c-0.8,1.5-0.2,3.3,1.2,4.1c2.8,1.7,6.1,2.8,9.3,3.6c1.9,0.5,3.8,0.8,5.7,0.9
					c0,2.1,0.1,4.2,0.1,6.4c0,1.6,1.4,3,3.1,3c1.6,0,3-1.4,3-3.1c0-2.1-0.1-4.2-0.1-6.3c3-0.3,6-1,8.8-2.2c1.9-0.8,3.7-1.8,5.4-2.9
					C46.1,41.1,46.7,39.4,45.8,37.9z M15.9,39.1C16.1,39.2,16,39.2,15.9,39.1L15.9,39.1z"/>
			</g>
		</g>
	</g>
	<g>
		<g>
			<path class="st2" d="M62.1,23.8C60,16.9,64,11,69.5,9.3c6.6-2,11.2,1.4,13,7.3c0.4,1.2,0.6,2.4,0.5,2.9l-13.4,4.1
				c1.5,2.7,4.1,3.3,7,2.4c1.6-0.5,3-1.4,4.4-2.8l3.6,3.3c-1.9,2.3-4.7,4.1-7.4,4.9C70.6,33.4,64.3,30.8,62.1,23.8z M76,16.9
				c-0.7-2.1-2.1-3.4-4.8-2.6c-2,0.6-3.3,2.3-3,5L76,16.9z"/>
			<path class="st3" d="M92.6,13.5l-5.7,0l0-4.2l16.6,0l0,4.2l-5.8,0l0,17l-5.1,0L92.6,13.5z"/>
			<path class="st3" d="M103.6,26c0-3.4,2.7-5.3,9-6c-0.1-1.3-0.8-2.1-2.5-2.1c-1.3,0-2.6,0.5-4.3,1.4l-1.8-3.3
				c2.1-1.3,4.5-2.1,7-2.1c4.2,0,6.6,2.4,6.6,7.4l0,9.2l-4.1,0l-0.4-1.6h-0.1c-1.3,1.2-2.9,2-4.7,2C105.5,30.9,103.6,28.7,103.6,26z
				 M112.7,25.7v-2.6c-3.2,0.4-4.2,1.3-4.2,2.5c0,0.9,0.7,1.4,1.7,1.4C111.2,27,111.9,26.5,112.7,25.7z"/>
			<path class="st3" d="M121.7,14.3l5,0l0,16.2h-5L121.7,14.3z"/>
			<path class="st3" d="M130.3,20.1C130.3,13,135,9,140.4,9c2.8,0,5,1.3,6.5,2.8l-2.7,3.2c-1.1-1-2.2-1.7-3.7-1.7
				c-2.7,0-5,2.5-5,6.6c0,4.2,1.9,6.7,4.9,6.7c1.7,0,3.1-0.8,4.1-1.9l2.7,3.2c-1.8,2.1-4.2,3.1-6.9,3.1
				C134.8,31,130.3,27.3,130.3,20.1z"/>
			<path class="st3" d="M149.9,7.8l5,0l0,5.5l-0.2,2.9c1.2-1.1,2.8-2.2,5-2.2c3.5,0,5,2.5,5,6.6l0,10l-5.1,0l0-9.4
				c0-2.2-0.6-2.9-1.9-2.9c-1.1,0-1.8,0.5-2.8,1.5l0,10.8l-5,0L149.9,7.8z"/>
			<path class="st3" d="M168.5,24.4l0-10l5.1,0l0,9.4c0,2.3,0.6,2.9,1.9,2.9c1.1,0,1.9-0.5,2.7-1.7l0-10.6l5.1,0l0,16.2h-4.1
				l-0.4-2.2h-0.1c-1.3,1.6-2.9,2.6-5.1,2.6C170,31,168.5,28.5,168.5,24.4z"/>
			<path class="st3" d="M187.3,14.4h4.1l0.3,2h0.1c1.3-1.3,3-2.4,5.2-2.4c3.5,0,5,2.5,5,6.6l0,10h-5.1l0-9.4c0-2.2-0.6-2.9-1.9-2.9
				c-1.1,0-1.8,0.5-2.8,1.5l0,10.8l-5,0L187.3,14.4z"/>
			<path class="st3" d="M205.1,33.4c0-1.3,0.8-2.4,2.3-3.2v-0.1c-0.9-0.6-1.5-1.4-1.5-2.8c0-1.1,0.7-2.3,1.8-3v-0.1
				c-1.1-0.8-2.2-2.3-2.2-4.2c0-4,3.3-5.9,6.8-5.9c0.9,0,1.8,0.1,2.6,0.4l6,0v3.7h-2.5c0.3,0.5,0.4,1.2,0.4,2c0,3.8-2.9,5.4-6.5,5.4
				c-0.5,0-1.2-0.1-1.9-0.3c-0.4,0.3-0.5,0.6-0.5,1.1c0,0.7,0.7,1.1,2.4,1.1h2.6c4,0,6.3,1.2,6.3,4.2c0,3.4-3.5,5.8-9.2,5.8
				C208.2,37.5,205.1,36.3,205.1,33.4z M216.3,32.6c0-1-0.9-1.2-2.4-1.2h-1.5c-1.2,0-1.8-0.1-2.3-0.2c-0.5,0.5-0.8,0.9-0.8,1.5
				c0,1.1,1.4,1.7,3.5,1.7C214.8,34.3,216.3,33.6,216.3,32.6z M214.4,20c0-1.7-0.9-2.5-2.1-2.5c-1.2,0-2.1,0.9-2.1,2.5
				c0,1.7,0.9,2.5,2.1,2.5C213.5,22.5,214.4,21.6,214.4,20z"/>
			<g>
				<path class="st4" d="M128.7,4.3c-0.4,0.1-0.8,0.1-1.3,0c-0.7-0.2-1.4-0.6-1.9-1.1c-0.6-0.5-1.3-0.8-1.8-1.4
					c-0.4-0.4-0.7-1-1-1.5c-0.6-0.9-1.1,0.1-1.4,0.7c-0.4,0.8-0.7,1.6-1.3,2.2c-0.5,0.6-1.1,1.1-1.4,1.9c-0.3,0.8-0.2,1.6,0.1,2.3
					c0.3,0.9,1,1.3,1.8,1.8c0.8,0.5,1.3,1,1.8,1.8c0.5,0.7,1,1.4,1.9,1.7c1.2,0.3,2-0.6,2.6-1.5c0.5-0.7,1.1-1.8,2.1-1.6
					c0.4,0.1,0.7,0.2,1.1,0.2c0.5-0.1,0.9-0.4,1.2-0.6c1-0.7,2-1.4,3.1-1.9c1.1-0.5,2.3-1.1,3.6-1.1c0.7,0,1.3,0.1,2,0.1
					c0.8,0,1.5-0.3,2.2-0.8c0.8-0.6,2.4-2.3,1.4-3.3c-0.3-0.3-0.8-0.5-1.2-0.8c-0.5-0.3-0.9-0.8-1.4-1.1c-1.5-1.1-3.4,0.9-4.6,1.8
					c-1.3,1-2.8,2.1-4.5,1.4C130.6,3.1,129.7,4,128.7,4.3z"/>
			</g>
		</g>
		<g>
			<g>
				<path class="st2" d="M121.7,32.9c0.7,0.4,0.9,1.3,0.5,1.9l0,0c-0.4,0.7-1.3,0.9-1.9,0.5l-5.2-3c-0.7-0.4-0.9-1.2-0.5-1.9l0,0
					c0.4-0.7,1.3-0.9,1.9-0.5L121.7,32.9z"/>
				<path class="st2" d="M127.1,31.2c0,0.8-0.6,1.4-1.4,1.4l0,0c-0.8,0-1.4-0.6-1.4-1.4l0-6c0-0.8,0.6-1.4,1.4-1.4l0,0
					c0.8,0,1.4,0.6,1.4,1.4L127.1,31.2z"/>
				<path class="st2" d="M131.6,35.1c-0.6,0.5-1.5,0.5-2,0l0,0c-0.5-0.6-0.5-1.5,0-2l4.3-4.2c0.6-0.5,1.5-0.5,2,0l0,0
					c0.6,0.6,0.5,1.5,0,2L131.6,35.1z"/>
			</g>
			<g>
				<path class="st5" d="M133.2,56h-9c0,0-5.8-6.7-6.4-7.4c-1.4-1.8,1-3.9,2.5-2.1c0.6,0.7,2,2.2,2.2,2.4c0.5,0.4,1.1,0.2,1.1-0.7
					c0-0.8,0-8,0-9.9c0-2.1,3-2.2,3,0c0,2.1,0,5,0,5.3c0.6-1.4,2.4-1.4,2.8,0.2c1-1.2,2.5-0.5,2.6,0.8c1.3-0.8,2.4,0.2,2.4,1.8
					c0,1.6,0,4.7,0,5.5C134.4,53.4,133.2,54.2,133.2,56z"/>
				<path class="st6" d="M133.2,56.6h-9c-0.2,0-0.3-0.1-0.5-0.2c-0.2-0.3-5.8-6.7-6.4-7.4c-0.6-0.8-0.7-1.7-0.3-2.5
					c0.4-0.8,1.2-1.3,2-1.3c0.7,0,1.3,0.3,1.8,0.9c0.6,0.7,2,2.2,2.1,2.3c0,0,0,0,0,0c0,0,0.1-0.1,0.1-0.3c0-0.3,0-1.6,0-3.2
					c0-2.5,0-5.6,0-6.7c0-1.5,1.1-2.2,2.1-2.2c1,0,2.1,0.8,2.1,2.2v3.9c0.2-0.1,0.5-0.2,0.8-0.2c0.6,0,1.2,0.3,1.6,0.8
					c0.3-0.2,0.6-0.3,1-0.3c0.8,0,1.5,0.5,1.8,1.2c0.1,0,0.3,0,0.5,0c1.2,0,2.1,1.1,2.1,2.7v5.5c0,0.9-0.3,1.6-0.6,2.2
					c-0.3,0.6-0.6,1.2-0.6,2C133.8,56.3,133.5,56.6,133.2,56.6z M124.5,55.4h8.1c0.1-0.8,0.4-1.4,0.6-1.9c0.3-0.6,0.5-1,0.5-1.7
					v-5.5c0-0.8-0.4-1.5-0.9-1.5c-0.2,0-0.4,0.1-0.6,0.2c-0.2,0.1-0.4,0.1-0.6,0c-0.2-0.1-0.3-0.3-0.3-0.5c0-0.6-0.4-0.8-0.8-0.8
					c-0.3,0-0.5,0.1-0.7,0.4c-0.1,0.2-0.4,0.2-0.6,0.2s-0.4-0.2-0.4-0.4c-0.1-0.5-0.4-0.7-0.8-0.7c-0.4,0-0.7,0.2-0.9,0.7
					c-0.1,0.3-0.4,0.4-0.7,0.3c-0.3-0.1-0.5-0.3-0.5-0.6v-5.3c0-0.7-0.4-1-0.9-1c-0.5,0-0.9,0.3-0.9,1c0,1.1,0,4.2,0,6.7
					c0,1.6,0,2.9,0,3.2c0,1-0.6,1.5-1.2,1.5c-0.3,0-0.6-0.1-0.9-0.4c-0.2-0.2-1.6-1.7-2.2-2.4c-0.3-0.3-0.6-0.5-0.9-0.5
					c-0.4,0-0.7,0.2-0.9,0.6c-0.1,0.2-0.2,0.7,0.2,1.2C118.8,48.9,123.5,54.3,124.5,55.4z"/>
			</g>
		</g>
		<g>
			<path class="st3" d="M72.4,40.8c0.2,0.1,0.3,0.1,0.3,0.2c0,0.1-0.1,0.2-0.3,0.3c-0.6,1.1-1.3,2.3-2.3,3.5
				c1.9-0.1,3.7-0.3,5.5-0.5c-0.4-0.6-0.9-1.1-1.3-1.6l0.9-0.8c1.1,1,2.1,2.4,3.1,4l-1.2,0.8c-0.3-0.4-0.5-0.9-0.8-1.3
				c-2,0.3-4.8,0.6-8.6,1c-0.1,0.2-0.2,0.3-0.3,0.3c-0.1,0-0.2-0.1-0.2-0.2L67,45.1c0.5,0,1.1-0.1,1.6-0.1c0.4-0.6,0.8-1.2,1.1-1.8
				c0.6-1,1-2,1.4-2.9L72.4,40.8z M76.5,47v5.8h-1.3v-0.8H70v0.8h-1.3V47H76.5z M75.2,50.9v-2.7H70v2.7H75.2z"/>
			<path class="st3" d="M87.3,42.9v-2.8l1.2,0.1c0.2,0,0.3,0.1,0.3,0.2c0,0.1-0.1,0.2-0.3,0.3v2.2H93v6.3h-1.3v-0.8h-3v4.5h-1.3
				v-4.5h-3v0.8H83v-6.3L87.3,42.9L87.3,42.9z M87.3,47.1v-3h-3v3H87.3z M88.7,47.1h3v-3h-3V47.1z"/>
			<path class="st3" d="M100.3,46.2v4c0.2,0.5,0.5,0.9,1,1.1c0.5,0.2,1.3,0.3,2.3,0.3c2.4,0,4.6-0.1,6.6-0.2l-0.5,1.4h-6.1
				c-1,0-1.8-0.1-2.3-0.3c-0.6-0.2-1.1-0.5-1.5-0.9c-0.1-0.2-0.3-0.3-0.3-0.5l-1.3,1.3c-0.1,0.2-0.2,0.3-0.3,0.3
				c-0.1,0-0.2-0.1-0.2-0.2l-0.7-1c0.8-0.4,1.5-0.9,2.1-1.4v-2.6h-1.2v-1.2C97.9,46.2,100.3,46.2,100.3,46.2z M100.4,44.2l-0.8,0.9
				c-0.8-0.5-1.6-1-2.5-1.5l0.9-0.9C98.9,43.2,99.7,43.7,100.4,44.2z M100.9,41.6l-0.8,0.9c-0.7-0.5-1.4-1-2.2-1.4l0.9-0.9
				C99.6,40.6,100.3,41.1,100.9,41.6z M108,40.2l0.6,0.4c0.1,0.1,0.1,0.1,0.1,0.2c0,0.1-0.1,0.2-0.3,0.3l-2.1,1.6
				c0.4,0.2,0.8,0.4,1.2,0.6l-0.3,0.3h2.1v6.2c0,0.6-0.2,1-0.7,1.2c-0.4,0.1-0.7,0.2-1.1,0.2l-0.5-1.2l0.8,0c0.2,0,0.3-0.2,0.3-0.5
				v-0.4h-2.2v2h-1.1v-2h-2.1V51h-1.2v-7.4h4.2c-0.8-0.4-1.6-0.7-2.3-0.9l0.8-0.7c0.4,0.1,0.8,0.3,1.2,0.4l1.2-1.1H102v-1h5.4
				l0.3-0.1C107.8,40.1,107.9,40.1,108,40.2z M104.8,45.8v-1.1h-2.1v1.1H104.8z M104.8,47.9v-1.2h-2.1v1.2H104.8z M105.9,45.8h2.2
				v-1.1h-2.2V45.8z M105.9,47.9h2.2v-1.2h-2.2V47.9z"/>
			<path class="st3" d="M144.3,40.5h4.3v11.3c0,0.5-0.3,0.9-1,1.1c-0.5,0.1-1,0.2-1.5,0.2l-0.4-1.2l1.3,0c0.3,0,0.5-0.2,0.5-0.4v-3
				h-2.1c0,0.5-0.1,0.9-0.2,1.4c-0.2,1.2-0.4,2.2-0.8,3.2l-1.2-0.6c0.4-0.9,0.6-1.8,0.8-2.7c0.2-1.2,0.3-2.4,0.3-3.5v-4.4
				L144.3,40.5L144.3,40.5z M147.4,47.3V45h-2v1c0,0.5,0,0.9,0,1.3C145.4,47.3,147.4,47.3,147.4,47.3z M147.4,43.9v-2.4h-2v2.4
				H147.4z M155.3,40.5c0,1.7-0.1,2.7-0.2,3.2c-0.1,0.4-0.3,0.7-0.6,0.9c-0.3,0.2-0.8,0.3-1.6,0.3l-0.5-1.2c0.7,0,1.1,0,1.3-0.1
				c0.1-0.1,0.2-0.2,0.3-0.5c0.1-0.2,0.1-0.7,0.2-1.5h-3.3v4h4.1c0.1-0.1,0.2-0.1,0.3-0.1l0.2,0.1l0.5,0.6c0.1,0.1,0.1,0.2,0.1,0.3
				c0,0.1-0.1,0.2-0.4,0.3c-0.4,1.4-0.8,2.4-1.1,3c-0.1,0.2-0.2,0.4-0.3,0.6c0.5,0.6,1.2,1.1,2,1.7l-1.2,0.9
				c-0.6-0.6-1.1-1.1-1.5-1.6c-0.4,0.5-1,1-1.7,1.6l-0.9-0.9c0.8-0.6,1.4-1.1,1.8-1.7c-0.3-0.5-0.5-0.9-0.7-1.4
				c-0.3-0.5-0.5-1.3-0.7-2.3h-0.5v5.8h-1.2V40.5h0.5H155.3z M153.5,49.3c0.1-0.2,0.3-0.5,0.4-0.8c0.2-0.5,0.4-1.1,0.7-1.9h-2.1
				C152.7,47.7,153,48.6,153.5,49.3z"/>
			<path class="st3" d="M164.1,40.8l0.7,0.4c0.1,0.1,0.1,0.1,0.1,0.2c0,0.1-0.1,0.2-0.3,0.3l-2,2.1c0.3,0.2,0.6,0.3,0.9,0.5
				l-0.6,0.6h0.9l0.3-0.1c0.1,0,0.2,0,0.3,0.1l0.6,0.4c0.1,0.1,0.1,0.1,0.1,0.2c0,0.1-0.1,0.2-0.3,0.3l-0.1,0.3
				c1-0.2,1.8-0.4,2.3-0.6c0,0,0,0,0.1,0c-0.1-0.1-0.2-0.1-0.2-0.2c-0.4-0.4-0.7-0.9-0.9-1.4c0-0.1-0.1-0.1-0.1-0.2
				c-0.3,0.4-0.6,0.9-0.9,1.3l-1.2-0.7c1-1.1,1.8-2.4,2.4-3.9l1.1,0.4c0.1,0.1,0.2,0.1,0.2,0.2s0,0.1-0.1,0.2
				c-0.1,0-0.2,0.3-0.4,0.7h4.3v1.1h-1c-0.1,0.8-0.2,1.4-0.4,1.8c-0.1,0.3-0.3,0.6-0.6,0.8c0.1,0.1,0.2,0.1,0.3,0.1
				c0.5,0.2,1.2,0.4,2,0.5l-1,1.2c-0.8-0.2-1.5-0.5-2.1-0.8c-0.1-0.1-0.2-0.1-0.3-0.2c-0.7,0.4-1.6,0.7-2.7,1l-0.8-0.8l-0.6,1.7
				l-1-0.4l0.6-1.8h-0.9v5.4c0,0.5-0.2,0.8-0.5,1c-0.3,0.2-0.9,0.3-2,0.3l-0.5-1.2h1.1c0.4,0,0.6-0.1,0.6-0.4v-3.7
				c-0.2,0.5-0.4,0.9-0.5,1.2c-0.3,0.7-0.8,1.4-1.4,2.1l-1-0.9c0.6-0.6,1.1-1.2,1.6-1.9c0.3-0.4,0.6-1.1,0.9-1.9h-2.3v-1.1h3.4
				c-0.9-0.5-1.8-0.9-2.6-1.2l0.8-0.8c0.4,0.1,0.8,0.3,1.1,0.4l1.2-1.5h-3.6v-1.1h4.2l0.3-0.1C163.9,40.7,164,40.7,164.1,40.8z
				 M167.1,47.9c0-0.3,0.1-0.6,0.1-1l1.2,0.1c0.2,0,0.3,0.1,0.3,0.1c0,0.1-0.1,0.2-0.3,0.3c0,0.1,0,0.3-0.1,0.4h2.7
				c0,1.9-0.1,3.1-0.2,3.6c-0.1,0.5-0.3,0.8-0.6,1c-0.3,0.2-0.9,0.3-1.7,0.3l-0.6-1.3c0.8,0,1.3,0,1.4-0.1c0.1-0.1,0.2-0.2,0.3-0.5
				c0.1-0.2,0.2-0.8,0.2-1.8h-1.7c-0.1,0.3-0.1,0.5-0.2,0.7c-0.3,0.8-0.7,1.5-1.3,2c-0.4,0.4-1,0.8-1.7,1.1l-0.8-1
				c0.9-0.3,1.5-0.8,1.9-1.2c0.4-0.4,0.6-0.8,0.8-1.4c0,0,0-0.1,0-0.1h-1.9v-1.1H167.1z M167.2,43.6c0.2,0.4,0.5,0.7,0.9,1.1
				c0.1,0.1,0.2,0.1,0.2,0.2c0.1-0.1,0.2-0.2,0.3-0.3c0.4-0.4,0.6-1,0.6-1.8h-2.3C166.9,43.1,167,43.3,167.2,43.6z"/>
			<path class="st3" d="M180.1,43.8c0-0.1,0-0.2,0-0.3v-2.3c0-0.3,0-0.6-0.1-1.1l1.4,0.1c0.2,0,0.4,0.1,0.4,0.2
				c0,0.2-0.1,0.3-0.3,0.4v2.7c0,0.1,0,0.2,0,0.3h5.3v1.2h-5.3c0.5,1.6,1.2,2.9,2.1,3.9c0.8,1,2,1.9,3.7,2.6l-1.2,1.3
				c-1.4-0.7-2.6-1.8-3.6-3.1c-0.6-0.7-1.1-1.7-1.5-2.8c-0.1,0.4-0.2,0.7-0.3,1c-0.4,1-1.2,2-2.4,2.9c-0.8,0.7-1.8,1.3-2.9,1.9
				l-1.2-1c1.2-0.6,2.1-1.1,2.7-1.6c1.1-0.8,1.8-1.5,2.2-2.3c0.4-0.8,0.7-1.8,0.9-2.8h-5.3v-1.2L180.1,43.8L180.1,43.8z"/>
			<path class="st3" d="M196.1,40.8c0.2,0.1,0.3,0.1,0.3,0.2c0,0.1-0.1,0.2-0.3,0.3c-0.6,1.1-1.3,2.3-2.3,3.5
				c1.9-0.1,3.7-0.3,5.5-0.5c-0.4-0.6-0.9-1.1-1.3-1.6l0.9-0.8c1.1,1,2.1,2.4,3.1,4l-1.2,0.8c-0.3-0.4-0.5-0.9-0.8-1.3
				c-2,0.3-4.8,0.6-8.6,1c-0.1,0.2-0.2,0.3-0.3,0.3c-0.1,0-0.2-0.1-0.2-0.2l-0.3-1.4c0.5,0,1.1-0.1,1.6-0.1c0.4-0.6,0.8-1.2,1.1-1.8
				c0.6-1,1-2,1.4-2.9L196.1,40.8z M200.2,47v5.8h-1.3v-0.8h-5.2v0.8h-1.3V47H200.2z M198.9,50.9v-2.7h-5.2v2.7H198.9z"/>
			<path class="st3" d="M211,42.9v-2.8l1.2,0.1c0.2,0,0.3,0.1,0.3,0.2c0,0.1-0.1,0.2-0.3,0.3v2.2h4.4v6.3h-1.3v-0.8h-3v4.5H211v-4.5
				h-3v0.8h-1.3v-6.3L211,42.9L211,42.9z M211,47.1v-3h-3v3H211z M212.3,47.1h3v-3h-3V47.1z"/>
		</g>
	</g>
</g>
</svg>
