<?xml version="1.0" encoding="utf-8"?>
<!-- Generator: Adobe Illustrator 24.0.0, SVG Export Plug-In . SVG Version: 6.00 Build 0)  -->
<svg version="1.1" id="圖層_1" xmlns="http://www.w3.org/2000/svg" xmlns:xlink="http://www.w3.org/1999/xlink" x="0px" y="0px"
	 viewBox="0 0 230 61.3" style="enable-background:new 0 0 230 61.3;" xml:space="preserve">
<style type="text/css">
	.st0{fill:#00A5AC;}
	.st1{fill:#FCD100;}
	.st2{fill:#FFFFFF;}
	.st3{fill:#00A6AE;}
	.st4{fill-rule:evenodd;clip-rule:evenodd;fill:#56B453;}
	.st5{fill-rule:evenodd;clip-rule:evenodd;fill:#90C54C;}
	.st6{clip-path:url(#SVGID_2_);}
	.st7{fill:#FCD000;}
	.st8{clip-path:url(#SVGID_4_);}
	.st9{fill:#00A4AD;}
	.st10{fill:#FDD100;}
	.st11{fill-rule:evenodd;clip-rule:evenodd;fill:#00A5AC;}
	.st12{fill:#7D7D7D;}
	.st13{fill:#008088;}
	.st14{fill:none;stroke:#FFFFFF;stroke-width:3;stroke-linecap:round;stroke-linejoin:round;stroke-miterlimit:10;}
	.st15{fill:none;stroke:#231815;stroke-miterlimit:10;}
	.st16{fill:#231815;}
	.st17{fill:none;stroke:#231815;stroke-width:2;stroke-miterlimit:10;}
	.st18{fill:none;stroke:#FFFFFF;stroke-miterlimit:10;}
	.st19{fill:none;stroke:#FFFFFF;stroke-width:1.5;stroke-miterlimit:10;}
	.st20{fill:#4D4D4D;}
	.st21{fill:#9E9E9F;}
	.st22{fill:none;stroke:#DBDCDC;stroke-width:2;stroke-miterlimit:10;}
	.st23{fill:none;}
	.st24{fill:#F7F9FA;}
	.st25{fill-rule:evenodd;clip-rule:evenodd;fill:#9E9E9F;}
	.st26{fill-rule:evenodd;clip-rule:evenodd;fill:#00A4AD;}
	.st27{fill:none;stroke:#0F0F0F;stroke-width:1.2;stroke-linecap:round;stroke-linejoin:round;stroke-miterlimit:10;}
	
		.st28{fill:none;stroke:#0F0F0F;stroke-width:1.2;stroke-linecap:round;stroke-linejoin:round;stroke-miterlimit:10;stroke-dasharray:2,2.5;}
	.st29{fill:none;stroke:#0F0F0F;stroke-linecap:round;stroke-linejoin:round;stroke-miterlimit:10;stroke-dasharray:1.8991,3.7982;}
	.st30{fill:none;stroke:#0F0F0F;stroke-linecap:round;stroke-linejoin:round;stroke-miterlimit:10;}
	.st31{fill:#009676;}
	.st32{fill-rule:evenodd;clip-rule:evenodd;fill:#FCD000;}
	.st33{fill:#3E3A39;}
	.st34{fill:#3CB9C0;}
	.st35{fill:none;stroke:#9E9E9F;stroke-miterlimit:10;}
	.st36{fill:none;stroke:#00A4AD;stroke-linecap:round;stroke-miterlimit:10;}
	.st37{fill:none;stroke:#9E9E9F;stroke-width:3.4;stroke-miterlimit:10;}
	.st38{fill:none;stroke:#00A4AD;stroke-width:3.4;stroke-linecap:round;stroke-miterlimit:10;}
	.st39{fill:none;stroke:#231815;stroke-width:5;stroke-linecap:round;stroke-miterlimit:10;}
	.st40{fill:none;stroke:#231815;stroke-width:10;stroke-linecap:round;stroke-linejoin:round;stroke-miterlimit:10;}
	.st41{fill:#9FA0A0;}
	.st42{fill:#C6E2C3;}
	.st43{fill:#0363A6;}
	.st44{fill:#BBD4EF;}
	.st45{fill:#F7C8D6;}
	.st46{fill:#464747;}
	.st47{fill:#1A171B;}
	.st48{fill:#18161A;}
	.st49{fill:none;stroke:#FDD100;stroke-width:2;stroke-linejoin:round;stroke-miterlimit:10;}
</style>
<g>
	<g>
		<g>
			<g>
				<path class="st9" d="M58.4,21.74c-1.76-3.62-5.86-5.9-9.82-5.85c-5.03,0.06-10.07,0.11-15.1,0.17
					c-0.05-4.24-0.09-8.48-0.14-12.72c-0.02-1.83-1.56-3.34-3.39-3.32c-1.83,0.02-3.34,1.56-3.32,3.39
					c0.05,4.24,0.09,8.48,0.14,12.72c-3.97,0.04-7.93,0.09-11.9,0.13c-3.37,0.04-6.68-0.16-9.7,1.71C1.93,19.97,0.01,23.6,0,27.39
					c0,1.14,0.02,2.27,0.04,3.41c0.03,3.19,0.07,6.38,0.1,9.57c0.02,1.83,1.56,3.34,3.39,3.32c1.83-0.02,3.34-1.56,3.32-3.39
					c-0.04-3.71-0.08-7.42-0.12-11.14c-0.01-0.59-0.01-1.17-0.02-1.76c0-0.03,0-0.05,0-0.08c0-0.19,0.01-0.38,0.02-0.57
					c0.06-0.37,0.17-0.73,0.28-1.08c0.11-0.23,0.23-0.45,0.36-0.66c0.04-0.07,0.09-0.14,0.13-0.21c0.05-0.07,0.12-0.16,0.16-0.21
					c0.17-0.19,0.35-0.38,0.54-0.55c-0.09,0.1,0.56-0.4,0.75-0.51c0.04-0.03,0.09-0.05,0.14-0.07c0.11-0.05,0.39-0.17,0.51-0.21
					c0.18-0.06,0.8-0.18,0.91-0.21c0.14-0.01,0.27-0.01,0.41-0.01c0.06,0,0.11,0,0.17,0c5.25-0.06,10.5-0.11,15.75-0.17
					c0,0.57,0.01,1.14,0.02,1.7c0.05,4.48,0.1,8.96,0.15,13.44c0.02,1.83,1.56,3.34,3.39,3.32c1.83-0.02,3.34-1.56,3.32-3.39
					c-0.05-5.05-0.11-10.1-0.17-15.15c4.06-0.04,8.12-0.09,12.18-0.13c0.92-0.01,1.84-0.02,2.76-0.03c0.06,0,0.11,0,0.17,0
					c0.19,0,0.39,0,0.58,0.02c0.25,0.04,0.5,0.11,0.75,0.18c0.08,0.02,0.16,0.05,0.23,0.07c0.09,0.03,0.19,0.08,0.25,0.11
					c0.23,0.11,0.46,0.25,0.67,0.39c-0.13-0.07,0.52,0.44,0.68,0.6c0.04,0.04,0.07,0.07,0.1,0.11c0.07,0.09,0.27,0.33,0.33,0.44
					c0.14,0.21,0.26,0.43,0.38,0.66c0.04,0.11,0.08,0.22,0.11,0.33c0.08,0.25,0.14,0.5,0.19,0.75c0.01,0.12,0.02,0.24,0.02,0.36
					c0.01,0.29,0.01,0.58,0.01,0.88c0.02,1.47,0.03,2.94,0.05,4.42c0.03,2.63,0.06,5.26,0.09,7.89c0.02,1.83,1.56,3.34,3.39,3.32
					c1.83-0.02,3.34-1.56,3.32-3.39c-0.04-3.71-0.08-7.42-0.12-11.14c-0.01-0.59-0.01-1.17-0.02-1.76
					C59.66,25,59.19,23.35,58.4,21.74z"/>
				<path class="st10" d="M50.82,40.7c-0.91-1.51-3.08-2.17-4.61-1.15c-0.92,0.62-1.88,1.2-2.86,1.73
					c-0.47,0.25-0.95,0.49-1.43,0.72c-0.07,0.03-0.32,0.14-0.43,0.2c-0.22,0.09-0.45,0.18-0.67,0.27c-1.89,0.74-3.86,1.27-5.86,1.61
					c-0.07,0.01-0.21,0.03-0.33,0.05c-0.13,0.02-0.25,0.03-0.38,0.05c-0.45,0.05-0.9,0.09-1.35,0.13c-0.95,0.07-1.91,0.09-2.86,0.08
					c-0.84-0.01-1.69-0.06-2.53-0.13c-0.16-0.01-0.72-0.08-0.91-0.1c-0.33-0.05-0.66-0.1-0.99-0.15c-2.79-0.46-5.52-1.25-8.15-2.28
					c-0.02-0.01-0.04-0.02-0.06-0.02c-0.22-0.09-0.45-0.19-0.67-0.29c-0.42-0.18-0.83-0.38-1.24-0.58c-0.5-0.24-1-0.5-1.48-0.78
					c-0.09-0.05-0.17-0.1-0.25-0.15c-1.56-0.95-3.69-0.3-4.58,1.25c-0.93,1.62-0.3,3.63,1.25,4.58c3.13,1.91,6.8,3.2,10.34,4.1
					c2.09,0.53,4.23,0.9,6.39,1.1c0.03,2.36,0.05,4.71,0.08,7.07c0.02,1.83,1.56,3.34,3.39,3.32c1.83-0.02,3.34-1.56,3.32-3.39
					c-0.03-2.33-0.05-4.67-0.08-7c3.35-0.31,6.65-1.09,9.76-2.41c2.11-0.89,4.13-1.94,6.04-3.22C51.18,44.29,51.79,42.32,50.82,40.7
					z M17.55,41.76C17.85,41.88,17.72,41.83,17.55,41.76L17.55,41.76z"/>
			</g>
		</g>
	</g>
	<g>
		<path class="st7" d="M78.73,29.53c-2.03-6.59,1.76-12.21,7.02-13.82c6.26-1.93,10.62,1.37,12.33,6.94c0.34,1.1,0.54,2.29,0.53,2.8
			l-12.74,3.92c1.47,2.59,3.87,3.1,6.62,2.26c1.56-0.48,2.88-1.36,4.19-2.69l3.42,3.12c-1.79,2.19-4.51,3.93-7.07,4.71
			C86.81,38.67,80.79,36.23,78.73,29.53z M91.88,22.99c-0.63-2.03-2.04-3.24-4.52-2.47c-1.87,0.57-3.17,2.18-2.88,4.75L91.88,22.99z
			"/>
		<path class="st33" d="M107.75,19.77l-5.46-0.01l0.01-4.02l15.81,0.02l-0.01,4.02l-5.49-0.01l-0.02,16.19l-4.86-0.01L107.75,19.77z
			"/>
		<path class="st33" d="M118.22,31.65c0-3.26,2.56-5.03,8.59-5.67c-0.11-1.25-0.76-1.98-2.33-1.99c-1.22,0-2.5,0.48-4.05,1.35
			l-1.68-3.18c2.04-1.22,4.24-2.03,6.66-2.03c3.99,0,6.25,2.24,6.24,7.07l-0.01,8.77l-3.94-0.01l-0.35-1.55h-0.11
			c-1.28,1.14-2.72,1.92-4.43,1.92C119.96,36.35,118.22,34.24,118.22,31.65z M126.8,31.39l0-2.47c-3.02,0.4-3.99,1.27-3.99,2.36
			c0,0.9,0.65,1.33,1.65,1.33C125.45,32.61,126.1,32.15,126.8,31.39z"/>
		<path class="st33" d="M135.38,20.54l4.81,0.01L140.17,36l-4.81,0L135.38,20.54z"/>
		<path class="st33" d="M143.55,26.01c0.01-6.73,4.52-10.59,9.66-10.58c2.64,0.01,4.75,1.23,6.14,2.64l-2.56,3.09
			c-1.01-0.92-2.06-1.57-3.5-1.58c-2.61,0-4.76,2.33-4.76,6.27c0,4.02,1.84,6.36,4.7,6.36c1.6,0,2.91-0.81,3.86-1.84l2.55,3.04
			c-1.72,1.98-3.97,2.98-6.61,2.98C147.88,36.39,143.54,32.85,143.55,26.01z"/>
		<path class="st33" d="M162.22,14.32l4.81,0.01l-0.01,5.22l-0.22,2.75c1.12-1.03,2.64-2.09,4.73-2.09c3.37,0,4.81,2.42,4.8,6.28
			l-0.01,9.56l-4.84-0.01l0.01-8.96c0-2.12-0.57-2.74-1.79-2.74c-1.08,0-1.74,0.49-2.69,1.38l-0.01,10.32l-4.81-0.01L162.22,14.32z"
			/>
		<path class="st33" d="M179.92,30.16l0.01-9.56l4.84,0.01l-0.01,8.97c0,2.15,0.57,2.74,1.79,2.75c1.09,0,1.77-0.43,2.59-1.57
			l0.01-10.13l4.83,0.01l-0.02,15.46l-3.94,0l-0.35-2.12h-0.1c-1.28,1.52-2.72,2.5-4.84,2.49
			C181.35,36.43,179.91,34.01,179.92,30.16z"/>
		<path class="st33" d="M197.86,20.62l3.94,0l0.33,1.93h0.11c1.28-1.25,2.86-2.31,4.95-2.3c3.37,0.01,4.8,2.43,4.79,6.28l-0.01,9.56
			l-4.83,0l0.01-8.96c0-2.12-0.56-2.75-1.79-2.75c-1.09,0-1.74,0.49-2.69,1.38l-0.01,10.32l-4.81-0.01L197.86,20.62z"/>
		<path class="st33" d="M214.76,38.7c0-1.28,0.76-2.31,2.2-3.04v-0.14c-0.82-0.54-1.41-1.36-1.41-2.66c0-1.09,0.71-2.17,1.72-2.88
			v-0.11c-1.09-0.77-2.09-2.21-2.08-4c0-3.78,3.13-5.62,6.47-5.61c0.9,0,1.74,0.14,2.44,0.38l5.68,0.01l0,3.51l-2.39,0
			c0.24,0.43,0.43,1.14,0.43,1.87c-0.01,3.61-2.75,5.19-6.17,5.18c-0.52,0-1.14-0.09-1.82-0.28c-0.35,0.33-0.49,0.57-0.49,1.09
			c0,0.71,0.62,1.04,2.28,1.04l2.44,0c3.81,0,5.95,1.18,5.95,3.97c-0.01,3.26-3.38,5.56-8.76,5.56
			C217.69,42.59,214.75,41.48,214.76,38.7z M225.38,37.88c0-0.92-0.81-1.12-2.26-1.12l-1.47,0c-1.11,0-1.71-0.06-2.2-0.19
			c-0.49,0.44-0.74,0.87-0.74,1.38c0,1.09,1.3,1.63,3.29,1.63C223.99,39.58,225.38,38.86,225.38,37.88z M223.61,25.89
			c0-1.58-0.81-2.4-1.95-2.4c-1.12,0-1.96,0.82-1.96,2.39c0,1.6,0.84,2.42,1.95,2.42C222.79,28.31,223.6,27.5,223.61,25.89z"/>
		<g>
			<path class="st9" d="M142.05,10.98c-0.39,0.1-0.81,0.11-1.21,0.01c-0.7-0.16-1.29-0.59-1.85-1.03c-0.57-0.44-1.28-0.79-1.75-1.35
				c-0.36-0.43-0.64-0.91-0.94-1.38c-0.56-0.85-1.05,0.11-1.34,0.68c-0.37,0.73-0.65,1.48-1.22,2.09c-0.51,0.55-1.05,1.07-1.35,1.78
				c-0.3,0.72-0.23,1.52,0.05,2.23c0.32,0.81,0.94,1.27,1.67,1.7c0.75,0.44,1.27,0.96,1.75,1.69c0.45,0.68,0.97,1.38,1.79,1.62
				c1.11,0.33,1.9-0.61,2.49-1.41c0.48-0.67,1.02-1.74,2-1.48c0.34,0.09,0.65,0.24,1.01,0.2c0.44-0.05,0.83-0.34,1.17-0.6
				c0.94-0.71,1.86-1.3,2.95-1.77c1.08-0.47,2.18-1.02,3.39-1.01c0.63,0,1.24,0.12,1.87,0.09c0.76-0.04,1.47-0.32,2.07-0.78
				c0.72-0.55,2.24-2.21,1.34-3.17c-0.31-0.33-0.8-0.5-1.17-0.75c-0.46-0.31-0.84-0.73-1.29-1.05c-1.46-1.03-3.26,0.85-4.35,1.67
				c-1.25,0.94-2.68,2.04-4.27,1.36C143.84,9.86,143.04,10.74,142.05,10.98z"/>
		</g>
	</g>
	<g>
		<path class="st33" d="M98.06,50.04v-2.55l1.15,0.09c0.21,0.02,0.32,0.08,0.32,0.17c0,0.07-0.09,0.17-0.26,0.3v1.99h4.02v5.79
			h-1.22v-0.77h-2.8v4.18h-1.21v-4.18h-2.75v0.77h-1.22v-5.79H98.06z M98.06,53.94v-2.78h-2.75v2.78H98.06z M99.27,53.94h2.8v-2.78
			h-2.8V53.94z"/>
		<path class="st33" d="M124.55,49.37V47.4l1.25,0.14c0.14,0.03,0.22,0.08,0.22,0.16c0,0.1-0.1,0.22-0.31,0.35v1.32h1.43v1.12h-1.43
			v2.48c0.54-0.25,1.08-0.52,1.62-0.81v1.12l-1.62,0.82v3.64c0,0.52-0.15,0.9-0.4,1.14c-0.23,0.26-0.82,0.39-1.73,0.39l-0.46-1.17
			h0.91c0.31,0,0.5-0.18,0.52-0.56v-2.86l-1.02,0.52c-0.15,0.27-0.26,0.4-0.37,0.4c-0.08,0-0.15-0.07-0.18-0.21l-0.43-1.16
			c0.67-0.23,1.34-0.48,1.99-0.75v-3.01h-1.78v-1.12H124.55z M133.64,53.24v6h-1.17v-0.61h-3.81v0.56h-1.17v-5.95H133.64z
			 M128.93,47.6c0.16,0.03,0.23,0.09,0.23,0.2c0,0.1-0.08,0.22-0.22,0.34c-0.13,0.09-0.18,0.23-0.18,0.42v0.55
			c0.57-0.08,1.08-0.21,1.53-0.36c0.63-0.18,1.4-0.52,2.33-1.04l0.78,0.78c0.05,0.05,0.08,0.1,0.08,0.18c0,0.08-0.05,0.1-0.16,0.1
			l-0.3-0.06c-0.1,0-0.23,0.04-0.39,0.1c-1.25,0.65-2.54,1.12-3.88,1.39v0.09c0,0.34,0.05,0.58,0.17,0.75
			c0.1,0.14,0.33,0.21,0.69,0.21h2.5c0.27,0,0.48-0.05,0.64-0.18c0.16-0.1,0.27-0.43,0.38-0.98l1.07,0.45
			c-0.17,0.77-0.36,1.26-0.58,1.47c-0.21,0.21-0.46,0.3-0.74,0.3h-3.71c-0.51,0-0.9-0.16-1.17-0.47c-0.23-0.28-0.35-0.7-0.35-1.25
			v-3.16L128.93,47.6z M132.47,55.42v-1.17h-3.81v1.17H132.47z M132.47,57.61v-1.22h-3.81v1.22H132.47z"/>
		<path class="st33" d="M141.99,53.08v3.66c0.18,0.49,0.5,0.83,0.92,1.01c0.47,0.21,1.17,0.31,2.12,0.31c2.22,0,4.25-0.05,6.1-0.16
			l-0.46,1.33h-5.64c-0.9,0-1.61-0.09-2.15-0.25c-0.57-0.18-1.02-0.47-1.34-0.87c-0.13-0.16-0.25-0.32-0.32-0.51l-1.21,1.17
			c-0.08,0.16-0.17,0.25-0.26,0.25c-0.1,0-0.17-0.07-0.2-0.18l-0.66-0.94c0.75-0.41,1.39-0.83,1.92-1.27V54.2h-1.07v-1.12H141.99z
			 M142.05,51.25l-0.77,0.82c-0.7-0.49-1.46-0.96-2.28-1.38l0.8-0.81C140.69,50.32,141.43,50.78,142.05,51.25z M142.55,48.82
			l-0.77,0.81c-0.62-0.47-1.3-0.88-2.03-1.26l0.82-0.82C141.36,47.95,142.01,48.37,142.55,48.82z M149.07,47.54l0.58,0.36
			c0.08,0.05,0.12,0.09,0.12,0.15c0,0.1-0.09,0.21-0.26,0.31l-1.94,1.51c0.37,0.17,0.73,0.34,1.08,0.52l-0.27,0.26h1.9v5.69
			c0,0.56-0.22,0.92-0.66,1.08c-0.34,0.13-0.68,0.2-1.02,0.2l-0.45-1.12l0.7-0.03c0.21-0.01,0.31-0.17,0.31-0.48v-0.41h-1.99v1.83
			h-1.02v-1.83h-1.92v1.88h-1.12v-6.8H147c-0.73-0.34-1.43-0.64-2.11-0.87l0.7-0.66c0.36,0.13,0.71,0.25,1.06,0.38l1.07-1.03h-4.16
			v-0.92h4.98l0.24-0.11C148.9,47.44,148.99,47.48,149.07,47.54z M146.15,52.68v-1.02h-1.92v1.02H146.15z M146.15,54.66v-1.07h-1.92
			v1.07H146.15z M147.17,52.68h1.99v-1.02h-1.99V52.68z M147.17,54.66h1.99v-1.07h-1.99V54.66z"/>
		<path class="st33" d="M176.76,49.37V47.4l1.25,0.14c0.14,0.03,0.22,0.08,0.22,0.16c0,0.1-0.11,0.22-0.31,0.35v1.32h1.43v1.12
			h-1.43v2.48c0.55-0.25,1.08-0.52,1.62-0.81v1.12l-1.62,0.82v3.64c0,0.52-0.14,0.9-0.4,1.14c-0.23,0.26-0.82,0.39-1.73,0.39
			l-0.45-1.17h0.91c0.31,0,0.49-0.18,0.52-0.56v-2.86l-1.02,0.52c-0.14,0.27-0.26,0.4-0.36,0.4c-0.08,0-0.15-0.07-0.18-0.21
			l-0.43-1.16c0.68-0.23,1.34-0.48,1.99-0.75v-3.01h-1.78v-1.12H176.76z M185.85,53.24v6h-1.17v-0.61h-3.81v0.56h-1.17v-5.95H185.85
			z M181.15,47.6c0.15,0.03,0.23,0.09,0.23,0.2c0,0.1-0.08,0.22-0.22,0.34c-0.13,0.09-0.18,0.23-0.18,0.42v0.55
			c0.57-0.08,1.08-0.21,1.53-0.36c0.63-0.18,1.4-0.52,2.33-1.04l0.78,0.78c0.05,0.05,0.08,0.1,0.08,0.18c0,0.08-0.05,0.1-0.16,0.1
			l-0.3-0.06c-0.1,0-0.23,0.04-0.39,0.1c-1.25,0.65-2.54,1.12-3.87,1.39v0.09c0,0.34,0.05,0.58,0.17,0.75
			c0.1,0.14,0.32,0.21,0.69,0.21h2.5c0.27,0,0.48-0.05,0.64-0.18c0.15-0.1,0.27-0.43,0.38-0.98l1.07,0.45
			c-0.17,0.77-0.37,1.26-0.58,1.47c-0.21,0.21-0.45,0.3-0.74,0.3h-3.71c-0.51,0-0.9-0.16-1.17-0.47c-0.23-0.28-0.35-0.7-0.35-1.25
			v-3.16L181.15,47.6z M184.68,55.42v-1.17h-3.81v1.17H184.68z M184.68,57.61v-1.22h-3.81v1.22H184.68z"/>
		<path class="st33" d="M192.51,53.08v3.66c0.18,0.49,0.5,0.83,0.92,1.01c0.47,0.21,1.17,0.31,2.12,0.31c2.23,0,4.26-0.05,6.1-0.16
			l-0.45,1.33h-5.65c-0.9,0-1.61-0.09-2.15-0.25c-0.57-0.18-1.02-0.47-1.34-0.87c-0.13-0.16-0.25-0.32-0.32-0.51l-1.21,1.17
			c-0.08,0.16-0.17,0.25-0.26,0.25c-0.1,0-0.17-0.07-0.2-0.18l-0.66-0.94c0.75-0.41,1.39-0.83,1.93-1.27V54.2h-1.07v-1.12H192.51z
			 M192.56,51.25l-0.77,0.82c-0.7-0.49-1.46-0.96-2.27-1.38l0.8-0.81C191.2,50.32,191.95,50.78,192.56,51.25z M193.06,48.82
			l-0.76,0.81c-0.63-0.47-1.3-0.88-2.03-1.26l0.82-0.82C191.87,47.95,192.52,48.37,193.06,48.82z M199.58,47.54l0.58,0.36
			c0.08,0.05,0.12,0.09,0.12,0.15c0,0.1-0.09,0.21-0.26,0.31l-1.94,1.51c0.37,0.17,0.73,0.34,1.08,0.52l-0.27,0.26h1.9v5.69
			c0,0.56-0.22,0.92-0.66,1.08c-0.34,0.13-0.68,0.2-1.01,0.2l-0.46-1.12l0.7-0.03c0.21-0.01,0.31-0.17,0.31-0.48v-0.41h-1.99v1.83
			h-1.02v-1.83h-1.92v1.88h-1.12v-6.8h3.89c-0.73-0.34-1.43-0.64-2.1-0.87l0.7-0.66c0.36,0.13,0.72,0.25,1.07,0.38l1.07-1.03h-4.16
			v-0.92h4.98l0.25-0.11C199.41,47.44,199.5,47.48,199.58,47.54z M196.67,52.68v-1.02h-1.92v1.02H196.67z M196.67,54.66v-1.07h-1.92
			v1.07H196.67z M197.68,52.68h1.99v-1.02h-1.99V52.68z M197.68,54.66h1.99v-1.07h-1.99V54.66z"/>
		<path class="st33" d="M224.77,50.04v-2.55l1.14,0.09c0.21,0.02,0.32,0.08,0.32,0.17c0,0.07-0.09,0.17-0.26,0.3v1.99H230v5.79
			h-1.22v-0.77h-2.8v4.18h-1.21v-4.18h-2.75v0.77h-1.22v-5.79H224.77z M224.77,53.94v-2.78h-2.75v2.78H224.77z M225.98,53.94h2.8
			v-2.78h-2.8V53.94z"/>
		<path class="st33" d="M110.83,54.5c0.73,1.85,1.87,2.55,3.46,2.1c1.16-0.32,1.93-1.18,2.35-2.57l1.98,0.31
			c-0.7,2.08-1.98,3.39-3.86,3.92c-1.46,0.41-2.75,0.26-3.87-0.45c-1.07-0.66-1.78-1.73-2.19-3.18c-0.42-1.48-0.28-2.81,0.41-3.95
			c0.63-1.04,1.62-1.78,2.97-2.15c1.29-0.36,2.47-0.26,3.54,0.27c1.14,0.58,1.89,1.52,2.26,2.85l0.22,0.8L110.83,54.5z
			 M112.54,50.16c-1.29,0.36-1.96,1.25-2.05,2.65l5.05-1.42C114.75,50.23,113.76,49.82,112.54,50.16z"/>
		<path class="st33" d="M83.61,48.06c0.15,0.05,0.25,0.12,0.25,0.2c0,0.06-0.1,0.17-0.3,0.3c-0.55,1.02-1.24,2.09-2.09,3.27
			c1.73-0.13,3.43-0.28,5.1-0.48c-0.39-0.54-0.81-1.04-1.22-1.51l0.86-0.72c0.97,0.96,1.94,2.19,2.9,3.67l-1.12,0.76
			c-0.23-0.42-0.48-0.82-0.73-1.21c-1.8,0.23-4.45,0.53-7.96,0.91c-0.09,0.17-0.18,0.24-0.26,0.24c-0.09,0-0.14-0.07-0.16-0.21
			l-0.3-1.26c0.5-0.03,1.01-0.05,1.51-0.09c0.42-0.6,0.75-1.15,1.04-1.64c0.52-0.91,0.96-1.81,1.32-2.69L83.61,48.06z M87.38,53.85
			v5.38h-1.17v-0.71h-4.83v0.71h-1.17v-5.38H87.38z M86.21,57.45v-2.48h-4.83v2.48H86.21z"/>
		<path class="st33" d="M210.24,48.06c0.15,0.05,0.25,0.12,0.25,0.2c0,0.06-0.1,0.17-0.3,0.3c-0.55,1.02-1.24,2.09-2.1,3.27
			c1.73-0.13,3.43-0.28,5.1-0.48c-0.39-0.54-0.8-1.04-1.22-1.51l0.86-0.72c0.97,0.96,1.94,2.19,2.9,3.67l-1.12,0.76
			c-0.23-0.42-0.48-0.82-0.72-1.21c-1.8,0.23-4.45,0.53-7.96,0.91c-0.09,0.17-0.18,0.24-0.26,0.24c-0.09,0-0.15-0.07-0.16-0.21
			l-0.29-1.26c0.51-0.03,1.01-0.05,1.51-0.09c0.42-0.6,0.75-1.15,1.04-1.64c0.52-0.91,0.96-1.81,1.32-2.69L210.24,48.06z M214,53.85
			v5.38h-1.17v-0.71H208v0.71h-1.17v-5.38H214z M212.83,57.45v-2.48H208v2.48H212.83z"/>
	</g>
	<g>
		<g>
			<path class="st7" d="M158.23,37.69c0.65,0.36,0.88,1.19,0.5,1.84l0,0c-0.37,0.65-1.19,0.87-1.84,0.51l-4.97-2.83
				c-0.65-0.37-0.87-1.19-0.5-1.84l0,0c0.37-0.65,1.2-0.88,1.84-0.51L158.23,37.69z"/>
			<path class="st7" d="M163.36,36.09c0,0.74-0.61,1.35-1.36,1.34l0,0c-0.75-0.01-1.35-0.61-1.35-1.36l0.01-5.71
				c0.01-0.75,0.61-1.35,1.36-1.34l0,0c0.75-0.01,1.35,0.6,1.34,1.35L163.36,36.09z"/>
			<path class="st7" d="M167.71,39.84c-0.53,0.52-1.38,0.53-1.91-0.02l0,0c-0.52-0.53-0.51-1.39,0.02-1.9l4.07-4.01
				c0.54-0.52,1.39-0.52,1.91,0.02l0,0c0.53,0.53,0.53,1.38-0.02,1.9L167.71,39.84z"/>
		</g>
		<g>
			<path class="st2" d="M169.19,59.71h-8.55c0,0-5.53-6.34-6.1-7.05c-1.36-1.71,0.93-3.73,2.4-2.01c0.55,0.64,1.88,2.07,2.07,2.25
				c0.44,0.41,1.06,0.18,1.06-0.67c0-0.74,0-7.66,0-9.39c0-2.02,2.85-2.11,2.85-0.03c0,1.96,0,4.79,0,5.09
				c0.58-1.34,2.25-1.3,2.65,0.15c0.94-1.1,2.4-0.5,2.44,0.78c1.21-0.75,2.29,0.17,2.29,1.69c0,1.52,0,4.46,0,5.22
				C170.3,57.24,169.19,57.97,169.19,59.71z"/>
			<path class="st34" d="M169.19,60.28h-8.55c-0.17,0-0.32-0.07-0.43-0.2c-0.23-0.26-5.55-6.36-6.12-7.07
				c-0.57-0.72-0.7-1.61-0.33-2.38c0.35-0.74,1.1-1.21,1.9-1.21c0.63,0,1.24,0.3,1.71,0.85c0.54,0.64,1.86,2.05,2.02,2.2
				c0.02,0.02,0.04,0.03,0.05,0.04c0.02-0.04,0.05-0.13,0.05-0.29c0-0.29,0-1.54,0-3.05c0-2.33,0-5.29,0-6.34
				c0-1.38,1.04-2.13,2.02-2.13c0.98,0,1.97,0.72,1.97,2.1v3.71c0.24-0.1,0.5-0.16,0.77-0.16c0.61,0,1.15,0.29,1.51,0.79
				c0.29-0.16,0.61-0.25,0.93-0.25c0.77,0,1.42,0.46,1.72,1.14c0.15-0.03,0.29-0.05,0.44-0.05c1.17,0,2.01,1.06,2.01,2.53v5.22
				c0,0.86-0.3,1.48-0.58,2.09c-0.27,0.58-0.53,1.12-0.53,1.89C169.76,60.02,169.5,60.28,169.19,60.28z M160.9,59.14h7.75
				c0.1-0.74,0.37-1.3,0.61-1.81c0.25-0.53,0.47-0.99,0.47-1.6v-5.22c0-0.8-0.37-1.39-0.87-1.39c-0.17,0-0.35,0.06-0.54,0.18
				c-0.18,0.11-0.39,0.11-0.57,0.02c-0.18-0.1-0.29-0.28-0.3-0.48c-0.02-0.53-0.38-0.8-0.74-0.8c-0.25,0-0.49,0.13-0.7,0.37
				c-0.14,0.16-0.35,0.23-0.56,0.19c-0.2-0.05-0.37-0.2-0.43-0.41c-0.12-0.44-0.4-0.69-0.75-0.69c-0.34,0-0.65,0.23-0.82,0.63
				c-0.11,0.25-0.38,0.39-0.64,0.33c-0.27-0.05-0.46-0.29-0.46-0.56V42.8c0-0.71-0.43-0.96-0.83-0.96c-0.44,0-0.88,0.3-0.88,0.98
				c0,1.05,0,4.01,0,6.34c0,1.52,0,2.77,0,3.05c0,0.99-0.61,1.44-1.18,1.44c-0.3,0-0.6-0.13-0.84-0.36
				c-0.21-0.2-1.56-1.65-2.11-2.29c-0.25-0.3-0.54-0.46-0.84-0.46c-0.36,0-0.7,0.23-0.87,0.57c-0.1,0.21-0.22,0.65,0.19,1.17
				C155.48,52.92,159.96,58.06,160.9,59.14z"/>
		</g>
	</g>
	<path class="st33" d="M222.94,16.79h-46.69c-3.9,0-7.06-3.16-7.06-7.06v0c0-3.9,3.16-7.06,7.06-7.06h46.69
		c3.9,0,7.06,3.16,7.06,7.06v0C230,13.63,226.84,16.79,222.94,16.79z"/>
	<g>
		<path class="st2" d="M178.63,6.79V7.6h-3.18V6.79H178.63z M178.37,14.18h-2.69c-0.07,0-0.11-0.04-0.11-0.11v-3.4
			c0-0.07,0.04-0.11,0.11-0.11h2.69c0.08,0,0.12,0.04,0.12,0.11v3.4C178.49,14.14,178.45,14.18,178.37,14.18z M178.32,8.06v0.77
			h-2.59V8.06H178.32z M178.32,9.31v0.77h-2.59V9.31H178.32z M178.35,5.51v0.81h-2.51V5.51H178.35z M176.41,11.33
			c-0.03,0-0.04,0.01-0.03,0.03v2.01l0.03,0.04h1.23l0.04-0.04v-2.01l-0.04-0.03H176.41z M179.77,9.55h-0.92V8.74h2.71v0.81h-0.94
			v3.14c0.42-0.16,0.78-0.31,1.07-0.47l0.4,0.75c-0.78,0.37-1.81,0.72-3.09,1.04l-0.34-0.79l1.11-0.26V9.55z M179.09,7.52V6.71h2.5
			l-0.02-1.49l0.85,0.08l-0.02,1.41h2.05v0.81h-2.01v0.09c0.09,2.19,0.46,3.97,1.06,5.36c0.09,0.23,0.18,0.33,0.25,0.33
			c0.01,0,0.03-0.03,0.04-0.09c0.03-0.15,0.04-0.58,0.04-1.27l0.82,0.21c-0.06,1.31-0.21,2.04-0.43,2.2
			c-0.1,0.09-0.22,0.13-0.35,0.13c-0.16,0-0.33-0.09-0.49-0.26l-0.22-0.27c-0.87-1.31-1.39-3.46-1.54-6.43H179.09z M183.37,5.22
			c0.29,0.22,0.58,0.52,0.9,0.92l-0.61,0.54c-0.32-0.39-0.62-0.68-0.86-0.88L183.37,5.22z"/>
		<path class="st2" d="M197.65,7.31v0.02c-0.41,0.43-1.04,0.77-1.87,1.01l-0.36-0.76c0.62-0.13,1.12-0.33,1.47-0.59
			c0.31-0.23,0.48-0.52,0.5-0.85V5.3h0.77v0.84c0,0.18-0.05,0.38-0.14,0.58c0.58,0.26,1.15,0.55,1.7,0.86l-0.37,0.72
			c-0.47-0.31-1.03-0.64-1.69-0.99H197.65z M195.47,8.7c0-0.08,0.05-0.13,0.14-0.13h8.45l0.63,0.31c-0.06,0.5-0.2,1.08-0.45,1.77
			l-0.72-0.28l0.35-1c0-0.07-0.03-0.11-0.1-0.11h-7.46c-0.05,0-0.06,0.02-0.06,0.07v1.2h-0.78V8.7z M196.12,5.3
			c0.26,0.26,0.54,0.62,0.83,1.08l-0.64,0.46c-0.3-0.47-0.56-0.82-0.8-1.07L196.12,5.3z M203.76,14.32h-7.49
			c-0.06,0-0.09-0.04-0.09-0.11v-1.85c0-0.07,0.03-0.1,0.09-0.1h2.5l0.3-0.64h-2.09c-0.07,0-0.1-0.04-0.1-0.1V9.78
			c0-0.07,0.03-0.1,0.1-0.1h5.99c0.07,0,0.11,0.03,0.11,0.1v1.74c0,0.06-0.04,0.1-0.11,0.1h-3.05l-0.3,0.64h4.14
			c0.06,0,0.1,0.03,0.1,0.1v1.85C203.86,14.28,203.82,14.32,203.76,14.32z M196.98,12.91c-0.03,0-0.04,0.01-0.03,0.03v0.69
			l0.03,0.03h6.07l0.04-0.03v-0.69l-0.04-0.03H196.98z M197.68,10.33c-0.03,0-0.04,0.01-0.03,0.03v0.57l0.03,0.04h4.59l0.04-0.04
			v-0.57l-0.04-0.03H197.68z M199.79,5.68c-0.14,0.35-0.35,0.75-0.65,1.19l-0.67-0.4c0.3-0.46,0.51-0.85,0.64-1.16L199.79,5.68z
			 M200.56,5.3c0.21,0.3,0.41,0.68,0.61,1.15l-0.71,0.34c-0.2-0.48-0.4-0.85-0.58-1.1L200.56,5.3z M201.98,7.39
			c-0.33,0.38-0.84,0.68-1.49,0.91l-0.4-0.73c0.51-0.14,0.89-0.31,1.14-0.51c0.23-0.19,0.36-0.44,0.38-0.73V5.28h0.77v1.06
			l-0.06,0.36c0.71,0.29,1.41,0.63,2.09,1l-0.36,0.72c-0.56-0.34-1.23-0.7-2.02-1.08L201.98,7.39z M204.1,5.7
			c-0.17,0.34-0.4,0.72-0.73,1.14l-0.64-0.44c0.32-0.44,0.56-0.8,0.69-1.1L204.1,5.7z"/>
		<path class="st2" d="M216.68,10.55c0-0.08-0.03-0.12-0.1-0.12h-0.96V9.58h1.7c0.15,0,0.21,0.07,0.21,0.22v2.4
			c0.05,0.2,0.17,0.4,0.36,0.62c0.18,0.25,0.46,0.43,0.85,0.57c0.36,0.13,0.89,0.19,1.59,0.16c1.6-0.01,3-0.04,4.2-0.09l-0.23,0.95
			l-3.91-0.06c-1.64,0-2.71-0.4-3.18-1.19c-0.09,0.21-0.29,0.46-0.59,0.73c-0.31,0.27-0.62,0.46-0.92,0.57l-0.41-0.78
			c0.55-0.21,0.93-0.44,1.11-0.67c0.13-0.2,0.23-0.42,0.28-0.68V10.55z M216.01,7.3c0.46,0.27,0.96,0.66,1.5,1.18l-0.54,0.65
			c-0.58-0.52-1.08-0.91-1.48-1.15L216.01,7.3z M216.28,5.39c0.42,0.26,0.89,0.63,1.39,1.11l-0.56,0.65
			c-0.52-0.5-0.97-0.86-1.34-1.08L216.28,5.39z M217.92,12.5v-0.77h2.81v-0.56h-2.2c-0.07,0-0.11-0.03-0.11-0.11V8.17
			c0-0.07,0.04-0.11,0.11-0.11h2.2v-0.5h-1.84V6.83h1.84V6.21h-2.09c-0.05,0-0.07,0.02-0.07,0.07v1.2h-0.81V5.68
			c0-0.1,0.05-0.15,0.15-0.15h6.11l0.63,0.31c0,0.48-0.09,1.05-0.29,1.69l-0.77-0.23c0.16-0.52,0.23-0.84,0.24-0.97
			c0-0.07-0.03-0.11-0.09-0.11h-2.2v0.62h1.89v0.73h-1.89v0.5h2.22c0.08,0,0.12,0.04,0.12,0.11v2.89c0,0.08-0.04,0.11-0.12,0.11
			h-2.22v0.56h2.83v0.77h-2.83v0.9h-0.81v-0.9H217.92z M220.73,8.75h-1.47c-0.03,0-0.04,0.01-0.03,0.03v0.51h1.5V8.75z M220.73,9.94
			h-1.5v0.5l0.03,0.04h1.47V9.94z M221.54,9.29h1.53V8.78l-0.04-0.03h-1.49V9.29z M221.54,10.48h1.49l0.04-0.04v-0.5h-1.53V10.48z"
			/>
	</g>
</g>
</svg>
